<svg width="825" height="932" viewBox="0 0 825 932" fill="none" xmlns="http://www.w3.org/2000/svg">
<rect width="825" height="932" fill="#F5F5F5"/>
<g id="frameVisible">
<rect width="1920" height="1080" transform="translate(-554 -51)" fill="white"/>
<g id="silueta">
<g id="grupContorn">
<g id="grupDelimitador">
<path id="delimitadorCadera" d="M441.954 380.601L352.617 382.839H351.566L356.821 393.465L371.01 410.803L388.352 430.937L406.219 450.512L420.934 466.172L427.765 474.002L439.327 461.138L451.939 444.36L469.806 420.87L480.316 406.888L499.76 380.601H497.658H478.74H441.954Z" stroke="#FF0000"/>
<path id="delimitadorPit" d="M424.612 380.601L418.832 173.107M418.832 173.107L342.107 230.154L338.954 232.391M418.832 173.107L474.01 211.698L498.709 230.154M418.832 173.107L387.301 147.38M418.832 173.107L449.837 147.38M418.832 173.107L424.612 14.8301" stroke="#FF0000"/>
</g>
<g id="grupText">
<path id="7" d="M553.871 577.149L564.28 556.558V556.377H552.28V553.877H567.189V556.513L556.826 577.149H553.871Z" fill="black"/>
<path id="5" d="M303.968 577.468C302.634 577.468 301.433 577.202 300.365 576.672C299.297 576.142 298.441 575.414 297.797 574.49C297.153 573.566 296.801 572.513 296.74 571.331H299.468C299.574 572.384 300.051 573.255 300.899 573.945C301.755 574.627 302.778 574.968 303.968 574.968C304.922 574.968 305.771 574.744 306.513 574.297C307.263 573.85 307.85 573.236 308.274 572.456C308.706 571.668 308.922 570.778 308.922 569.786C308.922 568.771 308.699 567.865 308.252 567.07C307.812 566.267 307.206 565.634 306.433 565.172C305.661 564.71 304.778 564.475 303.786 564.468C303.074 564.46 302.343 564.57 301.593 564.797C300.843 565.017 300.225 565.301 299.74 565.649L297.104 565.331L298.513 553.877H310.604V556.377H300.877L300.058 563.24H300.195C300.672 562.861 301.271 562.547 301.99 562.297C302.71 562.047 303.46 561.922 304.24 561.922C305.665 561.922 306.933 562.263 308.047 562.945C309.168 563.619 310.047 564.543 310.683 565.718C311.327 566.892 311.649 568.233 311.649 569.74C311.649 571.225 311.316 572.551 310.649 573.718C309.99 574.877 309.081 575.793 307.922 576.468C306.763 577.134 305.445 577.468 303.968 577.468Z" fill="black"/>
<path id="6" d="M425.289 417.512C424.335 417.497 423.38 417.316 422.426 416.967C421.471 416.619 420.6 416.031 419.812 415.206C419.024 414.372 418.392 413.247 417.914 411.831C417.437 410.406 417.199 408.619 417.199 406.467C417.199 404.406 417.392 402.581 417.778 400.99C418.164 399.391 418.725 398.047 419.46 396.956C420.195 395.857 421.081 395.024 422.119 394.456C423.164 393.887 424.342 393.603 425.653 393.603C426.956 393.603 428.115 393.865 429.13 394.387C430.153 394.903 430.986 395.622 431.63 396.547C432.274 397.471 432.691 398.535 432.88 399.74H430.108C429.85 398.694 429.35 397.827 428.608 397.137C427.865 396.448 426.88 396.103 425.653 396.103C423.85 396.103 422.43 396.887 421.392 398.456C420.361 400.024 419.842 402.225 419.835 405.058H420.017C420.441 404.414 420.945 403.865 421.528 403.41C422.119 402.948 422.77 402.592 423.483 402.342C424.195 402.092 424.949 401.967 425.744 401.967C427.077 401.967 428.297 402.3 429.403 402.967C430.509 403.626 431.395 404.539 432.062 405.706C432.729 406.865 433.062 408.194 433.062 409.694C433.062 411.134 432.74 412.452 432.096 413.649C431.452 414.838 430.547 415.785 429.38 416.49C428.221 417.187 426.858 417.528 425.289 417.512ZM425.289 415.012C426.244 415.012 427.1 414.774 427.858 414.297C428.623 413.819 429.225 413.179 429.664 412.376C430.111 411.573 430.335 410.679 430.335 409.694C430.335 408.732 430.119 407.857 429.687 407.069C429.263 406.274 428.676 405.641 427.926 405.172C427.183 404.702 426.335 404.467 425.38 404.467C424.661 404.467 423.99 404.611 423.369 404.899C422.748 405.179 422.202 405.566 421.733 406.058C421.27 406.55 420.907 407.115 420.642 407.751C420.377 408.38 420.244 409.043 420.244 409.74C420.244 410.664 420.46 411.528 420.892 412.331C421.331 413.134 421.93 413.781 422.687 414.274C423.452 414.766 424.32 415.012 425.289 415.012Z" fill="black"/>
<path id="9" d="M523.767 174.364C524.722 174.372 525.676 174.554 526.631 174.91C527.585 175.266 528.457 175.857 529.244 176.682C530.032 177.501 530.665 178.618 531.142 180.035C531.619 181.451 531.858 183.228 531.858 185.364C531.858 187.432 531.661 189.27 531.267 190.876C530.881 192.474 530.32 193.823 529.585 194.921C528.858 196.02 527.972 196.853 526.926 197.421C525.888 197.989 524.714 198.273 523.404 198.273C522.1 198.273 520.938 198.016 519.915 197.501C518.9 196.978 518.066 196.254 517.415 195.33C516.771 194.398 516.358 193.319 516.176 192.092H518.949C519.199 193.16 519.695 194.042 520.438 194.739C521.188 195.429 522.176 195.773 523.404 195.773C525.199 195.773 526.616 194.989 527.654 193.421C528.699 191.853 529.222 189.637 529.222 186.773H529.04C528.616 187.41 528.112 187.959 527.529 188.421C526.945 188.883 526.297 189.239 525.585 189.489C524.873 189.739 524.116 189.864 523.313 189.864C521.979 189.864 520.756 189.535 519.642 188.876C518.536 188.209 517.65 187.296 516.983 186.137C516.324 184.97 515.994 183.637 515.994 182.137C515.994 180.713 516.313 179.41 516.949 178.228C517.593 177.039 518.494 176.092 519.654 175.387C520.82 174.682 522.191 174.342 523.767 174.364ZM523.767 176.864C522.813 176.864 521.953 177.103 521.188 177.58C520.43 178.05 519.828 178.686 519.381 179.489C518.941 180.285 518.722 181.167 518.722 182.137C518.722 183.107 518.934 183.989 519.358 184.785C519.79 185.573 520.377 186.201 521.119 186.671C521.869 187.133 522.722 187.364 523.676 187.364C524.396 187.364 525.066 187.224 525.688 186.944C526.309 186.656 526.85 186.266 527.313 185.773C527.782 185.273 528.15 184.709 528.415 184.08C528.68 183.444 528.813 182.781 528.813 182.092C528.813 181.182 528.593 180.33 528.154 179.535C527.722 178.739 527.123 178.095 526.358 177.603C525.6 177.111 524.737 176.864 523.767 176.864Z" fill="black"/>
<path id="3" d="M306.66 198.273C305.16 198.273 303.823 198.016 302.649 197.501C301.482 196.986 300.554 196.27 299.865 195.353C299.183 194.429 298.812 193.357 298.751 192.137H301.615C301.676 192.887 301.933 193.535 302.388 194.08C302.842 194.618 303.437 195.035 304.172 195.33C304.907 195.626 305.721 195.773 306.615 195.773C307.615 195.773 308.501 195.599 309.274 195.251C310.047 194.902 310.653 194.417 311.092 193.796C311.532 193.175 311.751 192.455 311.751 191.637C311.751 190.781 311.539 190.027 311.115 189.376C310.691 188.717 310.07 188.201 309.251 187.83C308.433 187.459 307.433 187.273 306.251 187.273H304.388V184.773H306.251C307.176 184.773 307.986 184.607 308.683 184.273C309.388 183.94 309.937 183.47 310.331 182.864C310.732 182.258 310.933 181.546 310.933 180.728C310.933 179.94 310.759 179.254 310.41 178.671C310.062 178.088 309.57 177.633 308.933 177.307C308.304 176.982 307.562 176.819 306.706 176.819C305.903 176.819 305.145 176.967 304.433 177.262C303.729 177.55 303.153 177.97 302.706 178.523C302.259 179.069 302.017 179.728 301.979 180.501H299.251C299.297 179.281 299.664 178.213 300.354 177.296C301.043 176.372 301.945 175.652 303.058 175.137C304.179 174.622 305.41 174.364 306.751 174.364C308.191 174.364 309.426 174.656 310.456 175.239C311.486 175.815 312.278 176.576 312.831 177.523C313.384 178.47 313.66 179.493 313.66 180.592C313.66 181.902 313.316 183.02 312.626 183.944C311.945 184.868 311.017 185.508 309.842 185.864V186.046C311.312 186.289 312.46 186.914 313.285 187.921C314.111 188.921 314.524 190.16 314.524 191.637C314.524 192.902 314.179 194.039 313.49 195.046C312.808 196.046 311.876 196.834 310.695 197.41C309.513 197.986 308.168 198.273 306.66 198.273Z" fill="black"/>
<path id="8" d="M460.751 265.387C459.191 265.387 457.812 265.111 456.615 264.558C455.426 263.997 454.498 263.228 453.831 262.251C453.164 261.266 452.835 260.145 452.842 258.887C452.835 257.903 453.028 256.993 453.422 256.16C453.816 255.319 454.354 254.618 455.035 254.058C455.725 253.49 456.494 253.13 457.342 252.978V252.842C456.229 252.554 455.342 251.929 454.683 250.967C454.024 249.997 453.698 248.895 453.706 247.66C453.698 246.478 453.998 245.421 454.604 244.49C455.21 243.558 456.043 242.823 457.104 242.285C458.172 241.747 459.388 241.478 460.751 241.478C462.1 241.478 463.304 241.747 464.365 242.285C465.426 242.823 466.259 243.558 466.865 244.49C467.479 245.421 467.789 246.478 467.797 247.66C467.789 248.895 467.452 249.997 466.785 250.967C466.126 251.929 465.251 252.554 464.16 252.842V252.978C465.001 253.13 465.759 253.49 466.433 254.058C467.107 254.618 467.645 255.319 468.047 256.16C468.448 256.993 468.653 257.903 468.66 258.887C468.653 260.145 468.312 261.266 467.638 262.251C466.971 263.228 466.043 263.997 464.854 264.558C463.672 265.111 462.304 265.387 460.751 265.387ZM460.751 262.887C461.804 262.887 462.714 262.717 463.479 262.376C464.244 262.035 464.835 261.554 465.251 260.933C465.668 260.312 465.88 259.584 465.888 258.751C465.88 257.872 465.653 257.096 465.206 256.421C464.759 255.747 464.149 255.217 463.376 254.831C462.611 254.444 461.736 254.251 460.751 254.251C459.759 254.251 458.873 254.444 458.092 254.831C457.32 255.217 456.71 255.747 456.263 256.421C455.823 257.096 455.607 257.872 455.615 258.751C455.607 259.584 455.808 260.312 456.217 260.933C456.634 261.554 457.229 262.035 458.001 262.376C458.774 262.717 459.691 262.887 460.751 262.887ZM460.751 251.842C461.585 251.842 462.323 251.675 462.967 251.342C463.619 251.009 464.13 250.543 464.501 249.944C464.873 249.346 465.062 248.645 465.07 247.842C465.062 247.054 464.876 246.368 464.513 245.785C464.149 245.194 463.645 244.74 463.001 244.421C462.357 244.096 461.607 243.933 460.751 243.933C459.88 243.933 459.119 244.096 458.467 244.421C457.816 244.74 457.312 245.194 456.956 245.785C456.6 246.368 456.426 247.054 456.433 247.842C456.426 248.645 456.604 249.346 456.967 249.944C457.339 250.543 457.85 251.009 458.501 251.342C459.153 251.675 459.903 251.842 460.751 251.842Z" fill="black"/>
<path id="1" d="M445.713 72.8929V96.1656H442.895V75.8475H442.759L437.077 79.6202V76.7566L442.895 72.8929H445.713Z" fill="black"/>
<path id="2" d="M393.389 96.1656V94.1202L401.071 85.7111C401.972 84.7263 402.714 83.8702 403.298 83.1429C403.881 82.4081 404.313 81.7187 404.593 81.0747C404.881 80.4232 405.025 79.7414 405.025 79.0293C405.025 78.2111 404.828 77.5028 404.434 76.9043C404.048 76.3058 403.517 75.8437 402.843 75.5179C402.169 75.1922 401.411 75.0293 400.571 75.0293C399.677 75.0293 398.896 75.2149 398.23 75.5861C397.571 75.9497 397.059 76.4611 396.696 77.1202C396.339 77.7793 396.161 78.552 396.161 79.4384H393.48C393.48 78.0747 393.794 76.8778 394.423 75.8475C395.052 74.8172 395.908 74.0141 396.991 73.4384C398.082 72.8626 399.305 72.5747 400.661 72.5747C402.025 72.5747 403.233 72.8626 404.286 73.4384C405.339 74.0141 406.165 74.7906 406.764 75.7679C407.362 76.7452 407.661 77.8323 407.661 79.0293C407.661 79.8853 407.506 80.7225 407.196 81.5406C406.892 82.3513 406.362 83.2566 405.605 84.2566C404.855 85.249 403.813 86.4611 402.48 87.8929L397.252 93.4838V93.6656H408.071V96.1656H393.389Z" fill="black"/>
<path id="4" d="M368.67 260.296V257.978L378.897 241.796H380.579V245.387H379.442L371.715 257.615V257.796H385.488V260.296H368.67ZM379.624 265.069V259.592V258.512V241.796H382.306V265.069H379.624Z" fill="black"/>
</g>
<g id="grupCreu">
<path id="creu2" d="M529.777 9.32062L64.6377 924.225" stroke="black" stroke-width="3"/>
<path id="creu1" d="M301.363 5.88594L552.434 459.183L803.505 912.48" stroke="black" stroke-width="3"/>
</g>
<path id="contornSencer" d="M385.199 155.909L382.666 156.836C381.563 157.24 380.548 157.855 379.68 158.647V158.647C378.151 160.042 376.189 160.87 374.122 160.992L368.937 161.299C368.218 161.341 367.502 161.416 366.789 161.522C365.197 161.759 362.156 162.204 359.974 162.481C358.832 162.626 357.291 162.806 356.283 162.922C355.591 163.001 354.896 163.04 354.199 163.04V163.04C351.428 163.04 348.736 163.815 346.06 164.536C345.784 164.611 345.514 164.673 345.26 164.718V164.718C341.804 165.331 338.246 164.718 334.736 164.718C334.374 164.718 334.024 164.718 333.699 164.718C329.594 164.718 323.189 164.718 323.189 164.718M323.189 164.718L321.65 165.537C319.882 166.478 317.991 167.167 316.031 167.584L315.055 167.792C314.174 167.979 313.316 168.262 312.497 168.636V168.636C310.885 169.371 309.134 169.752 307.363 169.752H306.825C305.135 169.752 303.456 170.041 301.862 170.606L299.541 171.43M323.189 164.718L321.681 165.52C319.892 166.473 317.99 167.167 316.028 167.585L315.05 167.793C314.172 167.98 313.315 168.263 312.492 168.639C310.881 169.373 309.148 169.752 307.396 169.752H306.823C305.132 169.752 303.453 170.042 301.849 170.611L299.541 171.43M299.541 171.43L291.133 174.785M291.133 174.785V174.785C286.237 177.018 281.162 178.836 275.961 180.22L275.367 180.378M291.133 174.785C286.236 177.019 281.179 178.832 276.01 180.207L275.367 180.378M275.367 180.378L271.955 181.185C267.937 182.135 263.823 182.615 259.694 182.615H254.788C252.407 182.615 250.041 182.993 247.778 183.734V183.734C245.515 184.475 243.149 184.852 240.768 184.852H234.378M275.367 180.378L271.969 181.182C267.941 182.135 263.826 182.615 259.699 182.615H254.768C252.398 182.615 250.043 182.992 247.778 183.734C245.514 184.475 243.158 184.852 240.788 184.852H234.378M234.378 184.852H221.765M221.765 184.852H216.235C210.822 184.852 205.418 184.413 200.076 183.538L194.439 182.615M221.765 184.852H216.14C210.789 184.852 205.446 184.418 200.158 183.552L194.439 182.615M194.439 182.615V182.615C189.209 181.131 183.799 180.378 178.362 180.378H170.791M194.439 182.615C189.206 181.13 183.814 180.378 178.398 180.378H170.791M170.791 180.378H159.956C154.925 180.378 149.9 180.758 144.925 181.514L137.684 182.615M170.791 180.378H159.867C154.894 180.378 149.927 180.754 145.004 181.502L137.684 182.615M137.684 182.615L120.342 184.852M120.342 184.852V184.852C114.789 184.852 109.181 185.315 103.705 186.235L101.949 186.53M120.342 184.852H120.18C114.691 184.852 109.21 185.31 103.788 186.221L101.949 186.53M101.949 186.53L93.2667 187.596C89.9909 187.999 86.6665 187.634 83.5561 186.53V186.53M101.949 186.53L93.2383 187.6C89.9762 188 86.6713 187.635 83.5561 186.53M83.5561 186.53L78.8265 184.852M78.8265 184.852L76.9675 184.193C74.022 183.148 71.2643 181.635 68.8006 179.712V179.712C66.0479 177.564 62.9307 175.929 59.5983 174.886L55.7041 173.667M78.8265 184.852L76.9009 184.169C73.9983 183.139 71.2642 181.635 68.7969 179.709C66.0451 177.561 62.9635 175.939 59.6897 174.914L55.7041 173.667M55.7041 173.667V173.667C50.852 172.191 45.7468 171.737 40.7104 172.333L38.8878 172.548M55.7041 173.667C50.846 172.189 45.7638 171.735 40.7422 172.329L38.8878 172.548M38.8878 172.548L28.3776 173.667H19.4439M19.4439 173.667H17.8673M19.4439 173.667H18.1739V173.667C17.7685 173.667 17.3758 173.805 16.9764 173.875L11.0357 174.914M11.0357 174.914L6.21382 179.257C3.66874 181.548 4.85226 185.764 8.21839 186.396V186.396C8.69161 186.485 9.14568 186.656 9.56015 186.901L9.79288 187.038C12.0603 188.379 13.1067 191.104 12.3194 193.617L12.0867 194.36M11.0357 174.914L6.55017 179.209C3.99011 181.415 5.05555 185.802 8.29919 186.411C8.71924 186.49 9.12401 186.643 9.49688 186.863L9.72895 187C12.0102 188.349 13.0653 191.236 12.24 193.871L12.0867 194.36M12.0867 194.36L10.6554 198.549C10.2182 199.829 10.1719 201.21 10.5226 202.516L10.8098 203.586C10.9574 204.135 10.9454 204.716 10.7753 205.259V205.259C10.3236 206.701 11.0165 208.254 12.3915 208.881L13.6633 209.461M12.0867 194.36L10.6537 198.554C10.2189 199.827 10.1729 201.213 10.5225 202.516L10.806 203.571C10.9556 204.129 10.9435 204.722 10.7713 205.272C10.3267 206.691 10.9787 208.236 12.2709 208.826L13.6633 209.461M13.6633 209.461V209.461C16.4545 210.575 19.3767 211.328 22.3588 211.701L26.801 212.257M13.6633 209.461C16.4557 210.575 19.3646 211.326 22.3266 211.697L26.801 212.257M26.801 212.257L30.2495 213.073C34.2431 214.017 38.333 214.494 42.4367 214.494H42.8757C45.8163 214.494 48.7508 214.764 51.6423 215.299V215.299C56.7685 216.248 62.0148 216.358 67.1764 215.626L67.2653 215.613M26.801 212.257L30.2292 213.068C34.2378 214.016 38.3319 214.494 42.4383 214.494H42.8817C45.819 214.494 48.751 214.764 51.6449 215.299C56.7733 216.249 62.0079 216.359 67.1677 215.627L67.2653 215.613M67.2653 215.613L78.8265 214.494H89.3367M89.3367 214.494H93.4563C98.4103 214.494 103.357 214.868 108.255 215.613V215.613M89.3367 214.494H93.4661C98.4144 214.494 103.357 214.868 108.255 215.613M108.255 215.613L129.801 219.528M129.801 219.528V219.528C135.045 221.016 140.415 222.018 145.843 222.52L149.77 222.884M129.801 219.528C135.046 221.016 140.403 222.017 145.811 222.517L149.77 222.884M149.77 222.884H160.806H175.52H190.76L206 221.765H217.561M217.561 221.765L221.73 221.379C227 220.891 232.301 220.823 237.582 221.174L246.464 221.765M217.561 221.765L221.825 221.37C227.033 220.888 232.268 220.821 237.486 221.168L246.464 221.765M246.464 221.765H258.026H268.536H277.995H291.133L301.643 220.646M301.643 220.646C303.745 220.646 308.159 220.646 309 220.646M301.643 220.646H309M309 220.646C309.529 220.646 312.169 220.942 314.795 221.254C317.582 221.585 320.324 222.219 322.982 223.119L325.94 224.12C328.983 225.151 331.802 226.75 334.248 228.832V228.832C337.003 231.178 339.225 234.086 340.763 237.36L341.056 237.984L343.684 246.373L347.362 258.678C348.063 261.847 349.569 268.745 349.99 270.982C350.41 273.219 352.267 278.626 353.143 281.049L354.052 283.674C355.895 288.999 357.285 294.47 358.207 300.029L359.974 310.691L361.048 318.116C361.733 322.854 362.077 327.635 362.077 332.423V336.977V345.039C362.077 348.234 361.793 351.423 361.231 354.568V354.568C360.397 359.226 358.955 363.755 356.943 368.039L352.893 376.658C351.327 379.992 350.515 383.63 350.515 387.313V387.313L350.024 393.069C349.303 401.502 347.515 409.809 344.703 417.791L341.056 428.141L334.224 447.156L331.196 453.603C329.02 458.233 326.24 462.554 322.926 466.452V466.452C319.612 470.349 316.832 474.67 314.656 479.3L312.679 483.51L297.964 509.237L290.607 524.337L284.827 538.879L280.097 549.505L274.842 561.25L271.956 568.929C271.084 571.248 270.638 573.705 270.638 576.182V576.182C270.638 579.951 269.605 583.647 267.651 586.87L260.128 599.281L251.719 618.856L243.311 637.313L238.582 651.854L232.801 664.158L225.969 680.937L219.663 694.919L211.781 711.697L201.796 733.509L193.913 750.288L186.031 768.744L179.724 782.726L178.294 785.517C177.162 787.726 176.571 790.173 176.571 792.656V792.656C176.571 794.956 176.064 797.229 175.086 799.311L172.893 803.979L166.411 815.267C163.036 821.144 158.987 826.608 154.346 831.547V831.547C150.603 835.531 146.494 839.154 142.072 842.367L127.173 853.196L109.306 863.263L98.2704 869.415L79.1896 879.061C77.8986 879.714 76.6625 880.469 75.4931 881.321L71.2999 884.374C68.7002 886.267 66.8821 889.045 66.1879 892.185L65.7165 894.318C65.3589 895.935 65.5766 897.627 66.3322 899.101V899.101C67.5502 901.477 69.996 902.972 72.6666 902.972H75.1129C76.5247 902.972 77.9236 902.703 79.2349 902.18L81.4541 901.294C84.2314 900.186 87.1944 899.616 90.1847 899.616H90.9174C92.6623 899.616 94.4033 899.783 96.1164 900.115L99.0063 900.674C103.021 901.451 107.158 901.339 111.125 900.345V900.345C113.06 899.861 114.938 899.171 116.726 898.287L125.455 893.974C127.648 892.891 129.929 891.997 132.275 891.304V891.304C136.211 890.14 140.293 889.549 144.397 889.549H155.551C159.93 889.549 169.004 889.549 170.265 889.549C170.897 889.549 174.102 888.521 177.848 887.237C184.652 884.905 189.768 879.264 191.633 872.318V872.318C192.443 869.299 192.604 866.142 192.104 863.056L190.798 854.994C190.423 852.68 190.235 850.341 190.235 847.997V847.997C190.235 841.838 191.535 835.749 194.05 830.127L195.49 826.91L205.474 807.335L206.898 804.053C210.141 796.575 214.286 789.521 219.241 783.049L223.342 777.693L240.158 758.118L249.675 744.734C253.133 739.871 256.149 734.707 258.686 729.306C261.354 723.629 264.056 717.877 264.332 717.29C264.582 716.758 265.215 713.17 265.835 709.369C266.614 704.594 267.659 699.864 269.08 695.24C270.718 689.907 272.456 684.337 272.74 683.733C273.265 682.615 278.52 664.158 279.571 664.158C280.412 664.158 288.68 655.955 292.709 651.854L297.711 646.024C301.725 641.345 305.298 636.305 308.384 630.968L315.729 618.264C318.943 612.706 321.614 606.851 323.706 600.781L323.789 600.539C325.488 595.607 327.554 590.805 330.066 586.233C331.938 582.828 333.738 579.665 334.224 579.147C335.276 578.029 347.888 565.724 348.939 563.487C349.78 561.697 356.646 553.42 359.974 549.505L380.995 524.337L391.126 510.953C394.526 506.461 398.299 502.265 402.406 498.408L405.168 495.814L424.612 476.798V476.798C426.69 475.218 429.633 475.498 431.376 477.442L438.443 485.321C439.031 485.977 439.671 486.584 440.355 487.137L458.843 502.077C464.731 506.835 470.06 512.246 474.727 518.206L483.469 529.371L504.49 550.624L514.794 561.267C519.821 566.46 524.271 572.183 528.065 578.336L533.393 586.977L544.203 606.152C547.498 611.997 551.373 617.495 555.769 622.564L561.77 629.483L578.587 649.058L578.724 649.204C586.973 657.983 593.567 668.179 598.19 679.303L603.286 691.563L613.796 713.375L618.892 724.792C622.139 732.069 626.245 738.931 631.122 745.234L638.495 754.762L652.158 770.422L664.77 786.082L674.23 801.742L682.638 816.283L688.944 831.384L690.355 834.888C693.588 842.917 695.25 851.492 695.25 860.148V864.651C695.25 865.588 695.332 866.524 695.494 867.446V867.446C696.337 872.23 699.293 876.378 703.539 878.735L704.658 879.356C707.449 880.906 710.589 881.719 713.781 881.719H725.78C727.472 881.719 729.138 881.304 730.632 880.509V880.509C732.568 879.478 734.783 879.091 736.954 879.404L747.18 880.874C751.078 881.435 754.878 882.542 758.467 884.162L759.936 884.826C766.832 887.939 774.314 889.549 781.88 889.549C782.11 889.549 782.313 889.549 782.485 889.549C784.587 889.549 790.017 887.685 792.469 886.753L793.181 886.564C795.373 885.981 797.71 886.493 799.457 887.939V887.939C800.715 888.98 802.296 889.549 803.929 889.549H805.029C806.785 889.549 808.511 889.09 810.035 888.217L811.876 887.161C813.637 886.152 815.194 884.823 816.467 883.243L816.61 883.065C817.33 882.171 817.941 881.194 818.429 880.155L818.693 879.593C819.419 878.047 819.796 876.359 819.796 874.651V874.651C819.796 870.099 817.138 865.966 812.997 864.077L805.082 860.467L770.398 843.129L747.37 832.565C742.418 830.294 737.738 827.471 733.418 824.15V824.15C725.234 817.86 718.487 809.894 713.63 800.785L709.964 793.912L693.673 760.355L679.485 731.831L667.923 707.782L659.616 687.89C656.755 681.039 653.14 674.527 648.837 668.476L640.597 656.887L633.338 645.468C630.126 640.414 627.357 635.088 625.162 629.516C623.343 624.899 621.679 620.516 621.679 619.975C621.679 618.856 615.372 607.671 613.796 607.111C612.535 606.664 606.264 596.485 603.286 591.451C600.483 585.299 594.772 572.771 594.352 571.876C594.067 571.27 591.03 563.092 588.12 555.215C585.621 548.447 582.408 541.964 578.524 535.885L575.434 531.049L564.923 511.474L549.158 482.95C544.078 475.866 533.813 461.474 533.393 460.579C533.12 459.997 528.541 452.613 523.925 445.211C519.403 437.957 515.809 430.164 513.254 422.007L509.219 409.125L500.979 384.276C500.168 381.831 499.568 379.321 499.185 376.773L499.036 375.787C498.129 369.752 495.879 363.998 492.452 358.948V358.948C491.37 357.353 490.402 355.684 489.556 353.952C487.147 349.018 483.821 342.201 483.469 341.452C483.235 340.953 482.554 337.533 481.846 333.732C480.793 328.083 480.316 322.343 480.316 316.597C480.316 312.736 480.316 309.199 480.316 308.454C480.316 307.112 481.367 300.81 481.893 297.828L486.622 276.575L491.352 255.322C492.578 249.356 495.136 237.201 495.556 236.306V236.306C497.494 232.181 499.974 228.553 503.735 225.979C508.658 222.608 514.444 218.146 515 217.85C515.526 217.57 521.437 216.252 527.545 214.94C534.224 213.505 541.039 212.816 547.87 212.816H559.143L581.214 211.698C585.769 211.325 595.088 210.579 595.929 210.579C596.769 210.579 608.891 209.088 614.847 208.342H628.058C633.604 208.342 639.139 208.829 644.6 209.798V209.798C651.717 211.06 658.956 211.504 666.175 211.12L676.332 210.579L682.003 210.096C686.974 209.673 691.906 208.879 696.757 207.72L715.219 203.309C718.723 202.377 726.045 200.4 727.306 199.953C728.567 199.506 739.393 197.902 744.648 197.157H756.209C761.289 197.529 771.764 198.275 773.025 198.275C774.137 198.275 781.042 196.538 785.544 195.36C786.652 195.07 787.706 194.606 788.672 193.989L788.798 193.908C789.491 193.465 790.127 192.939 790.689 192.339V192.339C792.185 190.748 794.163 189.695 796.317 189.342L798.506 188.984C799.385 188.84 800.274 188.767 801.165 188.767H810.337L819.254 187.713C819.614 187.67 819.968 187.588 820.31 187.466V187.466C821.944 186.887 823.146 185.482 823.466 183.778L823.854 181.717C823.951 181.198 824 180.672 824 180.144V175.904V175.904C824 173.704 823.432 171.541 822.352 169.625L821.022 167.266C820.905 167.059 820.771 166.863 820.621 166.68L819.444 165.249C818.307 163.866 819.796 162.034 819.796 160.244V160.244V160.244C819.796 157.334 818.06 154.651 815.15 154.651C812.972 154.651 810.988 154.651 810.337 154.651C809.559 154.651 803.273 154.083 796.762 153.473C789.605 152.803 782.451 154.808 776.704 159.125V159.125L762.515 166.955V166.955C759.042 169.173 755.188 170.728 751.148 171.542L747.062 172.364C740.942 173.597 734.658 173.79 728.473 172.937L709.439 170.311H692.097L663.194 169.192V169.192C656.556 169.192 649.936 169.889 643.443 171.271L637.444 172.548L619.051 175.904L613.05 176.843C605.167 178.077 597.165 178.363 589.215 177.695L581.214 177.022L562.296 174.226L552.311 172.548L539.699 169.192L534.389 167.244C527.788 164.821 520.949 163.101 513.987 162.113L508.694 161.362V161.362C500.678 159.879 492.491 159.593 484.377 160.376C481.792 160.625 479.768 160.803 479.265 160.803C478.381 160.803 471.238 160.253 464.695 159.731C459.909 159.35 455.503 156.988 452.524 153.223V153.223C450.103 150.164 448.786 146.376 448.786 142.475V141.432C448.786 138.714 449.331 136.023 450.39 133.519L453.515 126.128L455.483 120.444C456.608 117.193 458.471 114.246 460.925 111.835V111.835C462.973 109.824 464.613 107.436 465.754 104.803L467.179 101.519L472.135 91.4492C472.681 90.3389 473.057 89.1523 473.248 87.9297L473.998 83.1399C474.323 81.0673 473.351 79.0063 471.545 77.9386V77.9386C470.428 77.278 469.603 76.218 469.237 74.9727L467.881 70.3531C467.415 68.7672 467.179 67.123 467.179 65.4702V62.5447C467.179 59.0885 466.703 55.6487 465.765 52.3221L464.025 46.1501L463.503 44.3696C462.109 39.6232 459.944 35.1384 457.094 31.0948L455.803 29.2615C454.285 27.1079 452.479 25.1726 450.436 23.5095V23.5095C446.598 20.386 442.02 18.3031 437.144 17.4615L433.105 16.7645C427.837 15.8553 422.448 15.9033 417.196 16.9064L407.531 18.7528C405.609 19.1199 403.721 19.6459 401.886 20.3252V20.3252C395.784 22.5838 390.424 26.4807 386.393 31.5876L383.594 35.133C382.214 36.882 380.977 38.7396 379.895 40.6876V40.6876C376.481 46.8378 374.689 53.7564 374.689 60.7909V64.0471V67.3072C374.689 70.0857 373.051 72.6033 370.511 73.7296V73.7296C369.129 74.3425 367.973 75.4003 367.23 76.7173V76.7173C365.998 78.9037 365.983 81.6022 367.215 83.7886L367.796 84.8194C368.186 85.5097 368.485 86.2471 368.686 87.0135L370.553 94.1101C371.552 97.905 373.168 101.51 375.337 104.78V104.78C377.345 107.808 378.881 111.125 379.89 114.616L382.571 123.89L386.992 141.143C387.198 141.944 387.336 142.761 387.407 143.585L387.967 150.141C388.196 152.82 386.645 155.332 384.148 156.329V156.329" stroke="black" stroke-width="2"/>
</g>
</g>
</g>
</svg>
