<svg width="1045" height="997" viewBox="0 0 1045 997" fill="none" xmlns="http://www.w3.org/2000/svg">
<path d="M500.557 96.6015L508.443 89.8985C509.114 89.3285 509.5 88.4928 509.5 87.6127V67.1295C509.5 66.7144 509.586 66.3037 509.753 65.9236L518.163 46.767C518.384 46.2653 518.737 45.8334 519.185 45.5184L536.551 33.3152C536.848 33.1068 537.18 32.9539 537.531 32.8638L556.133 28.094C556.377 28.0316 556.627 28 556.879 28H575.655C575.884 28 576.113 28.0263 576.336 28.0785L590.348 31.3479C590.777 31.4481 591.179 31.6416 591.525 31.9148L600.5 39L609.717 47.7322C609.905 47.91 610.069 48.1113 610.205 48.331L616.134 57.9081C616.375 58.2975 616.523 58.737 616.568 59.1928L619.895 92.9319C619.963 93.6225 620.268 94.2682 620.759 94.7589L627.291 101.291C628.041 102.041 628.339 103.13 628.076 104.156L623.152 123.407C623.052 123.798 622.874 124.165 622.628 124.486L603.881 149.001C603.63 149.33 603.449 149.708 603.351 150.11L597.799 172.779C597.608 173.56 597.738 174.385 598.16 175.069L607.637 190.412C607.876 190.799 608.2 191.126 608.584 191.37L622.743 200.337C622.914 200.445 623.095 200.536 623.284 200.608L665.898 216.772C666.295 216.922 666.655 217.155 666.955 217.455L683.052 233.552C683.347 233.847 683.578 234.202 683.729 234.592L691.847 255.603C691.948 255.867 692.012 256.143 692.037 256.424L696.481 307.287C696.494 307.429 696.516 307.57 696.549 307.709L710.924 369.175C710.975 369.391 711.049 369.601 711.146 369.8L727 402.5L739 434.5L752 462L761.538 478.692C761.839 479.218 762.292 479.641 762.838 479.905L791.744 493.876C791.914 493.959 792.076 494.057 792.228 494.169L807.15 505.254C808.457 506.225 808.751 508.062 807.811 509.392L804.396 514.23C803.834 515.026 802.92 515.5 801.946 515.5H790.011C787.868 515.5 786.416 517.683 787.245 519.66L791.885 530.726C791.961 530.908 792.056 531.083 792.167 531.246L802.985 547.238C803.321 547.735 803.5 548.32 803.5 548.919V555.589C803.5 556.755 802.825 557.815 801.769 558.308L797.877 560.124C796.774 560.639 795.463 560.335 794.699 559.389L789.474 552.92C788.674 551.929 787.097 552.792 787.5 554L791.5 570.89C791.799 572.149 791.256 573.458 790.153 574.136L787.895 575.526C786.548 576.355 784.789 575.996 783.875 574.705L777.499 565.704C777.186 565.263 776.678 565 776.137 565C775.052 565 774.255 566.02 774.518 567.073L776.543 575.173C776.823 576.29 776.438 577.468 775.553 578.206L772.208 580.993C771.452 581.624 770.434 581.843 769.485 581.579L764.197 580.11C762.899 579.75 762 578.567 762 577.22V569.05C762 568.686 761.934 568.326 761.805 567.986L761.287 566.62C760.149 563.62 755.73 564.26 755.491 567.46L755.111 572.515C755.041 573.45 754.537 574.299 753.75 574.809L748.962 577.907C747.593 578.793 745.768 578.423 744.851 577.075L738.34 567.5C738.116 567.17 737.959 566.799 737.88 566.408L729.593 525.46C729.531 525.155 729.423 524.862 729.271 524.591L696.5 466L675 427.5L656.738 395.418C656.58 395.141 656.468 394.841 656.405 394.529L642.349 325.13C641.774 322.291 637.893 321.866 636.717 324.512C636.573 324.835 636.489 325.18 636.466 325.532L634 364.5V391.101C634 391.366 634.035 391.63 634.104 391.885L640.441 415.283C640.48 415.428 640.509 415.575 640.526 415.723L656.461 553.664C656.487 553.887 656.488 554.113 656.463 554.336L644 668L640.543 705.537C640.514 705.844 640.534 706.153 640.6 706.454L648.451 742.277C648.484 742.426 648.505 742.576 648.515 742.727L651.971 796.556C651.99 796.85 651.966 797.146 651.898 797.433L640.624 845.47C640.542 845.821 640.524 846.183 640.57 846.54L648.5 908L656.319 967.616C656.434 968.493 656.155 969.377 655.558 970.03L640.896 986.066C640.635 986.353 640.32 986.586 639.969 986.752L622.906 994.857C621.534 995.509 619.89 995.032 619.081 993.746L603.894 969.625C603.635 969.215 603.48 968.747 603.442 968.263L600.5 931L592.545 885.758C592.515 885.586 592.5 885.412 592.5 885.238V834L584.5 776V755.779C584.5 755.593 584.483 755.408 584.449 755.226L580 731.5L574.5 680V645.5V589.874C574.5 589.625 574.469 589.378 574.408 589.138L565.958 555.74C565.279 553.055 561.634 552.646 560.377 555.115L536.752 601.506C536.585 601.833 536.48 602.187 536.442 602.551L529.5 668L523.5 700L518.5 736V775.676C518.5 775.891 518.477 776.106 518.431 776.317L504.569 839.683C504.523 839.894 504.5 840.109 504.5 840.324V900V961.352C504.5 961.779 504.409 962.201 504.233 962.59L493.115 987.142C492.728 987.998 491.962 988.622 491.047 988.83L472.229 993.107C471.163 993.349 470.049 992.992 469.322 992.175L454.949 976.006C454.654 975.673 454.435 975.278 454.311 974.85L446.793 949.009C446.604 948.356 446.641 947.657 446.9 947.029L460.274 914.549C460.423 914.186 460.5 913.798 460.5 913.406V868L457 819.5L453.03 772.849C453.01 772.617 453.017 772.384 453.051 772.154L460.5 722L463.982 668.271C463.994 668.091 463.989 667.91 463.969 667.73L460.5 638L453.045 582.338C453.015 582.114 453.011 581.886 453.032 581.66L460.5 502L476.5 406L482.336 386.548C482.444 386.186 482.483 385.807 482.451 385.43L477.969 333.139C477.682 329.789 472.945 329.375 472.081 332.625L466.092 355.155C466.031 355.384 465.943 355.605 465.83 355.814L446.61 391.296C446.537 391.432 446.474 391.573 446.422 391.718L428.658 441.556C428.553 441.85 428.403 442.126 428.213 442.374L382.876 501.509C382.628 501.833 382.448 502.204 382.348 502.599L371.5 545.5L370.108 554.315C370.037 554.766 369.864 555.194 369.603 555.568L363.598 564.146C363.211 564.699 362.648 565.105 362.002 565.299L360.813 565.656C359.25 566.125 357.598 565.259 357.096 563.706L355.533 558.873C354.62 556.054 350.608 556.123 349.794 558.972L345.935 572.479C345.663 573.431 344.938 574.187 343.999 574.5L342.611 574.963C341.612 575.296 340.51 575.08 339.71 574.395L338.789 573.605C337.989 572.919 337.608 571.865 337.784 570.826L340.481 554.913C340.788 553.098 338.262 552.324 337.5 554L329.73 567.598C329.577 567.864 329.385 568.106 329.16 568.314L324.997 572.157C323.864 573.203 322.122 573.219 320.969 572.195L319.671 571.04C318.937 570.389 318.569 569.419 318.685 568.445L320.921 549.599C321.262 546.72 317.726 545.079 315.748 547.198L315.181 547.806C315.061 547.935 314.929 548.053 314.788 548.159L309.146 552.39C307.924 553.307 306.208 553.159 305.161 552.047L300.603 547.203C299.661 546.202 299.52 544.688 300.261 543.53L306.863 533.213C306.954 533.071 307.057 532.937 307.17 532.813L316.666 522.367C316.887 522.124 317.067 521.846 317.198 521.545L320.176 514.696C321.037 512.715 319.585 510.5 317.424 510.5H310.337C310.113 510.5 309.89 510.475 309.672 510.425L301.335 508.531C299.969 508.22 299 507.006 299 505.605V500.298C299 499.191 299.609 498.174 300.585 497.652L320.5 487L340.188 476.171C340.395 476.058 340.588 475.92 340.763 475.76L362.576 455.887C362.856 455.631 363.085 455.325 363.252 454.984L382.398 415.709C382.466 415.57 382.523 415.426 382.568 415.278L401 355.5L428.5 256L440.163 228.786C440.383 228.272 440.743 227.83 441.2 227.51L460.226 214.192C460.408 214.064 460.604 213.957 460.81 213.873L504.5 196L521.856 187.779C522.867 187.3 523.527 186.3 523.57 185.183L524 174L523.519 159.073C523.506 158.695 523.422 158.321 523.271 157.974L518.5 147L499.942 116.721C499.653 116.25 499.5 115.707 499.5 115.154V98.8873C499.5 98.0072 499.887 97.1715 500.557 96.6015Z" stroke="black" stroke-width="3"/>
<path d="M564 28V464.5" stroke="#FF0000"/>
<path d="M469 463.5L645.008 466.5" stroke="#FF0000"/>
<path d="M465.5 487.5L505 524.5L557.293 556.595" stroke="#FF0000"/>
<path d="M567.77 556.556L610 526L647 487.5" stroke="#FF0000"/>
<path d="M474.608 329.69L520 293.5L566 242.5L605 187.5" stroke="#FF0000"/>
<path d="M519.389 189.686L562.5 242.5L570 252.5L578.5 263L635 327" stroke="#FF0000"/>
<path d="M528.011 106V103.443L537.614 92.9318C538.741 91.7008 539.669 90.6307 540.398 89.7216C541.127 88.803 541.667 87.9413 542.017 87.1364C542.377 86.322 542.557 85.4697 542.557 84.5795C542.557 83.5568 542.311 82.6714 541.818 81.9233C541.335 81.1752 540.672 80.5975 539.83 80.1903C538.987 79.7831 538.04 79.5795 536.989 79.5795C535.871 79.5795 534.896 79.8116 534.062 80.2756C533.239 80.7301 532.599 81.3693 532.145 82.1932C531.7 83.017 531.477 83.983 531.477 85.0909H528.125C528.125 83.3864 528.518 81.8902 529.304 80.6023C530.09 79.3144 531.16 78.3106 532.514 77.5909C533.878 76.8712 535.407 76.5114 537.102 76.5114C538.807 76.5114 540.317 76.8712 541.634 77.5909C542.95 78.3106 543.982 79.2812 544.73 80.5028C545.478 81.7244 545.852 83.0833 545.852 84.5795C545.852 85.6496 545.658 86.696 545.27 87.7188C544.891 88.732 544.228 89.8636 543.281 91.1136C542.344 92.3542 541.042 93.8693 539.375 95.6591L532.841 102.648V102.875H546.364V106H528.011Z" fill="black"/>
<path d="M423.841 380.398C421.966 380.398 420.295 380.076 418.827 379.432C417.368 378.788 416.208 377.893 415.347 376.747C414.494 375.592 414.03 374.252 413.955 372.727H417.534C417.61 373.665 417.932 374.474 418.5 375.156C419.068 375.829 419.812 376.349 420.73 376.719C421.649 377.088 422.667 377.273 423.784 377.273C425.034 377.273 426.142 377.055 427.108 376.619C428.074 376.184 428.831 375.578 429.381 374.801C429.93 374.025 430.205 373.125 430.205 372.102C430.205 371.032 429.939 370.09 429.409 369.276C428.879 368.452 428.102 367.808 427.08 367.344C426.057 366.88 424.807 366.648 423.33 366.648H421V363.523H423.33C424.485 363.523 425.498 363.314 426.369 362.898C427.25 362.481 427.937 361.894 428.429 361.136C428.931 360.379 429.182 359.489 429.182 358.466C429.182 357.481 428.964 356.624 428.528 355.895C428.093 355.166 427.477 354.598 426.682 354.19C425.896 353.783 424.968 353.58 423.898 353.58C422.894 353.58 421.947 353.764 421.057 354.134C420.176 354.493 419.456 355.019 418.898 355.71C418.339 356.392 418.036 357.216 417.989 358.182H414.58C414.636 356.657 415.096 355.322 415.957 354.176C416.819 353.021 417.946 352.121 419.338 351.477C420.74 350.833 422.278 350.511 423.955 350.511C425.754 350.511 427.297 350.876 428.585 351.605C429.873 352.325 430.863 353.277 431.554 354.46C432.245 355.644 432.591 356.922 432.591 358.295C432.591 359.934 432.16 361.33 431.298 362.486C430.446 363.641 429.286 364.441 427.818 364.886V365.114C429.655 365.417 431.09 366.198 432.122 367.457C433.154 368.707 433.67 370.256 433.67 372.102C433.67 373.684 433.24 375.104 432.378 376.364C431.526 377.614 430.361 378.598 428.884 379.318C427.406 380.038 425.725 380.398 423.841 380.398Z" fill="black"/>
<path d="M513.33 389.034V386.136L526.114 365.909H528.216V370.398H526.795L517.136 385.682V385.909H534.352V389.034H513.33ZM527.023 395V388.153V386.804V365.909H530.375V395H527.023Z" fill="black"/>
<path d="M556.67 513.398C555.477 513.379 554.284 513.152 553.091 512.716C551.898 512.28 550.809 511.546 549.824 510.514C548.839 509.473 548.048 508.066 547.452 506.295C546.855 504.515 546.557 502.28 546.557 499.591C546.557 497.015 546.798 494.733 547.281 492.744C547.764 490.746 548.465 489.065 549.384 487.702C550.302 486.329 551.41 485.287 552.707 484.577C554.014 483.866 555.487 483.511 557.125 483.511C558.754 483.511 560.203 483.838 561.472 484.491C562.75 485.135 563.792 486.035 564.597 487.19C565.402 488.346 565.922 489.676 566.159 491.182H562.693C562.371 489.875 561.746 488.791 560.818 487.929C559.89 487.067 558.659 486.636 557.125 486.636C554.871 486.636 553.096 487.616 551.798 489.577C550.51 491.537 549.862 494.288 549.852 497.83H550.08C550.61 497.025 551.24 496.338 551.969 495.77C552.707 495.192 553.522 494.747 554.412 494.435C555.302 494.122 556.244 493.966 557.239 493.966C558.905 493.966 560.43 494.383 561.812 495.216C563.195 496.04 564.303 497.181 565.136 498.639C565.97 500.088 566.386 501.75 566.386 503.625C566.386 505.424 565.984 507.072 565.179 508.568C564.374 510.055 563.242 511.239 561.784 512.119C560.335 512.991 558.631 513.417 556.67 513.398ZM556.67 510.273C557.864 510.273 558.934 509.974 559.881 509.378C560.837 508.781 561.59 507.981 562.139 506.977C562.698 505.973 562.977 504.856 562.977 503.625C562.977 502.422 562.707 501.329 562.168 500.344C561.637 499.349 560.903 498.559 559.966 497.972C559.038 497.384 557.977 497.091 556.784 497.091C555.884 497.091 555.046 497.271 554.27 497.631C553.493 497.981 552.812 498.464 552.224 499.08C551.647 499.695 551.192 500.401 550.861 501.196C550.529 501.982 550.364 502.811 550.364 503.682C550.364 504.837 550.634 505.917 551.173 506.92C551.723 507.924 552.471 508.734 553.418 509.349C554.374 509.965 555.458 510.273 556.67 510.273Z" fill="black"/>
<path d="M487.102 763.398C485.436 763.398 483.935 763.066 482.599 762.403C481.264 761.741 480.194 760.831 479.389 759.676C478.584 758.521 478.144 757.205 478.068 755.727H481.477C481.61 757.044 482.206 758.133 483.267 758.994C484.337 759.847 485.616 760.273 487.102 760.273C488.295 760.273 489.356 759.993 490.284 759.435C491.222 758.876 491.956 758.109 492.486 757.134C493.026 756.149 493.295 755.036 493.295 753.795C493.295 752.527 493.016 751.395 492.457 750.401C491.908 749.397 491.151 748.606 490.185 748.028C489.219 747.451 488.116 747.157 486.875 747.148C485.985 747.138 485.071 747.276 484.134 747.56C483.196 747.834 482.424 748.189 481.818 748.625L478.523 748.227L480.284 733.909H495.398V737.034H483.239L482.216 745.614H482.386C482.983 745.14 483.731 744.747 484.631 744.435C485.53 744.122 486.468 743.966 487.443 743.966C489.224 743.966 490.81 744.392 492.202 745.244C493.603 746.087 494.702 747.242 495.497 748.71C496.302 750.178 496.705 751.854 496.705 753.739C496.705 755.595 496.288 757.252 495.455 758.71C494.631 760.159 493.494 761.305 492.045 762.148C490.597 762.981 488.949 763.398 487.102 763.398Z" fill="black"/>
<path d="M611.92 763L624.932 737.261V737.034H609.932V733.909H628.568V737.205L615.614 763H611.92Z" fill="black"/>
<path d="M594.33 395.398C592.379 395.398 590.655 395.052 589.159 394.361C587.672 393.66 586.512 392.699 585.679 391.477C584.846 390.246 584.434 388.845 584.443 387.273C584.434 386.042 584.675 384.905 585.168 383.864C585.66 382.812 586.332 381.937 587.185 381.236C588.046 380.526 589.008 380.076 590.068 379.886V379.716C588.676 379.356 587.568 378.575 586.744 377.372C585.92 376.16 585.513 374.782 585.523 373.239C585.513 371.761 585.887 370.44 586.645 369.276C587.402 368.111 588.444 367.192 589.77 366.52C591.105 365.848 592.625 365.511 594.33 365.511C596.015 365.511 597.521 365.848 598.847 366.52C600.172 367.192 601.214 368.111 601.972 369.276C602.739 370.44 603.127 371.761 603.136 373.239C603.127 374.782 602.705 376.16 601.872 377.372C601.048 378.575 599.955 379.356 598.591 379.716V379.886C599.642 380.076 600.589 380.526 601.432 381.236C602.275 381.937 602.947 382.812 603.449 383.864C603.951 384.905 604.206 386.042 604.216 387.273C604.206 388.845 603.78 390.246 602.938 391.477C602.104 392.699 600.944 393.66 599.457 394.361C597.98 395.052 596.271 395.398 594.33 395.398ZM594.33 392.273C595.646 392.273 596.782 392.06 597.739 391.634C598.695 391.207 599.434 390.606 599.955 389.83C600.475 389.053 600.741 388.144 600.75 387.102C600.741 386.004 600.456 385.033 599.898 384.19C599.339 383.348 598.577 382.685 597.611 382.202C596.654 381.719 595.561 381.477 594.33 381.477C593.089 381.477 591.981 381.719 591.006 382.202C590.04 382.685 589.277 383.348 588.719 384.19C588.17 385.033 587.9 386.004 587.909 387.102C587.9 388.144 588.151 389.053 588.662 389.83C589.183 390.606 589.926 391.207 590.892 391.634C591.858 392.06 593.004 392.273 594.33 392.273ZM594.33 378.466C595.371 378.466 596.295 378.258 597.099 377.841C597.914 377.424 598.553 376.842 599.017 376.094C599.481 375.346 599.718 374.47 599.727 373.466C599.718 372.481 599.486 371.624 599.031 370.895C598.577 370.156 597.947 369.588 597.142 369.19C596.337 368.783 595.4 368.58 594.33 368.58C593.241 368.58 592.289 368.783 591.474 369.19C590.66 369.588 590.03 370.156 589.585 370.895C589.14 371.624 588.922 372.481 588.932 373.466C588.922 374.47 589.145 375.346 589.599 376.094C590.063 376.842 590.703 377.424 591.517 377.841C592.331 378.258 593.269 378.466 594.33 378.466Z" fill="black"/>
<path d="M682.273 350.511C683.466 350.521 684.659 350.748 685.852 351.193C687.045 351.638 688.134 352.377 689.119 353.409C690.104 354.432 690.895 355.829 691.491 357.599C692.088 359.37 692.386 361.591 692.386 364.261C692.386 366.847 692.14 369.143 691.648 371.151C691.165 373.149 690.464 374.834 689.545 376.207C688.636 377.58 687.528 378.622 686.222 379.332C684.924 380.043 683.456 380.398 681.818 380.398C680.189 380.398 678.736 380.076 677.457 379.432C676.188 378.778 675.147 377.874 674.332 376.719C673.527 375.554 673.011 374.205 672.784 372.67H676.25C676.562 374.006 677.183 375.109 678.111 375.98C679.048 376.842 680.284 377.273 681.818 377.273C684.063 377.273 685.833 376.293 687.131 374.332C688.438 372.372 689.091 369.602 689.091 366.023H688.864C688.333 366.818 687.704 367.505 686.974 368.082C686.245 368.66 685.436 369.105 684.545 369.418C683.655 369.73 682.708 369.886 681.705 369.886C680.038 369.886 678.509 369.474 677.116 368.651C675.734 367.817 674.626 366.676 673.793 365.227C672.969 363.769 672.557 362.102 672.557 360.227C672.557 358.447 672.955 356.818 673.75 355.341C674.555 353.854 675.682 352.67 677.131 351.79C678.589 350.909 680.303 350.483 682.273 350.511ZM682.273 353.636C681.08 353.636 680.005 353.935 679.048 354.531C678.101 355.118 677.348 355.914 676.79 356.918C676.241 357.912 675.966 359.015 675.966 360.227C675.966 361.439 676.231 362.543 676.761 363.537C677.301 364.522 678.035 365.308 678.963 365.895C679.901 366.473 680.966 366.761 682.159 366.761C683.059 366.761 683.897 366.586 684.673 366.236C685.45 365.876 686.127 365.388 686.705 364.773C687.292 364.148 687.751 363.442 688.082 362.656C688.414 361.861 688.58 361.032 688.58 360.17C688.58 359.034 688.305 357.969 687.756 356.974C687.216 355.98 686.468 355.175 685.511 354.56C684.564 353.944 683.485 353.636 682.273 353.636Z" fill="black"/>
<path d="M596.239 76.9091V106H592.716V80.6023H592.545L585.443 85.3182V81.7386L592.716 76.9091H596.239Z" fill="black"/>
<path d="M430 9L776 984" stroke="black" stroke-width="5"/>
<path d="M700 1L345 984" stroke="black" stroke-width="5"/>
</svg>
