<svg width="821" height="932" viewBox="0 0 821 932" fill="none" xmlns="http://www.w3.org/2000/svg">
<g id="frameVisible">
<g id="siluetaT">
<g id="grupInvisible">
<g id="grupBracDret">
<path id="bracDret" d="M533.4 212.857C526.152 214.364 511.833 217.407 511 217.85C510.281 218.233 500.625 226.003 495.57 228.998C494.921 229.383 494.115 229.316 493.505 228.873L467.5 210L454.75 201.072L417.227 174.573C416.124 173.793 416.094 172.167 417.169 171.348L420 169.192L430.5 160.803L443.267 149.807C444.105 149.085 445.37 149.181 446.09 150.021L452.369 157.348C452.456 157.449 452.53 157.56 452.59 157.679C452.844 158.189 453.342 158.527 453.91 158.578C461.014 159.204 474.058 160.803 475.265 160.803C476.507 160.803 486.908 160.083 492.246 159.527C492.417 159.509 492.586 159.513 492.756 159.539L504.694 161.362L520.25 163.57C520.389 163.59 520.526 163.624 520.658 163.672L535.699 169.192L548.311 172.548L558.296 174.226L577.214 177.022L596.944 178.68C597.103 178.693 597.263 178.688 597.421 178.663L615.051 175.904L633.444 172.548L649.003 169.236C649.14 169.207 649.28 169.192 649.42 169.192H659.194L688.097 170.311H705.439L733.481 174.18C733.703 174.21 733.929 174.203 734.149 174.159L752.894 170.385C753.136 170.336 753.367 170.243 753.575 170.11L758.515 166.955L772.704 159.125L786.043 153.686C786.343 153.564 786.667 153.516 786.989 153.546C794.659 154.263 805.102 154.651 806.337 154.651C806.712 154.651 807.279 154.77 807.968 154.938L811.916 155.633C813.047 155.832 813.958 157.005 814.546 157.992C815.083 158.893 815.796 159.728 815.796 160.244C815.796 160.51 815.641 160.782 815.401 161.043C814.498 162.026 814.017 163.514 814.865 164.545L816.736 166.82C816.81 166.91 816.876 167.006 816.933 167.108L819.742 172.091C819.911 172.391 820 172.729 820 173.073V175.904V180.751C820 180.875 819.988 180.999 819.966 181.12L819.161 185.399C819.03 186.099 818.536 186.677 817.865 186.915L816.007 187.574C815.867 187.624 815.721 187.658 815.573 187.675L806.337 188.767H795.989C795.881 188.767 795.773 188.776 795.666 188.794L789.665 189.776C789.23 189.847 788.832 190.06 788.53 190.38L786.013 193.06C785.899 193.18 785.771 193.287 785.632 193.376L783.476 194.752C783.303 194.863 783.115 194.946 782.916 194.999C778.612 196.14 770.258 198.275 769.026 198.275C767.764 198.275 757.289 197.529 752.209 197.157H740.648C735.393 197.902 724.567 199.506 723.306 199.953C722.045 200.4 714.723 202.377 711.219 203.309L685.615 209.426C685.518 209.449 685.419 209.465 685.32 209.473L672.332 210.579L651.541 211.686C651.388 211.694 651.235 211.684 651.085 211.658L632.566 208.373C632.451 208.353 632.334 208.342 632.217 208.342H610.847C604.891 209.088 592.769 210.579 591.929 210.579C591.088 210.579 581.769 211.325 577.214 211.698L555.143 212.816H533.802C533.666 212.816 533.534 212.83 533.4 212.857Z" stroke="black" stroke-opacity="0.01"/>
<path id="meitatBracDret" d="M651.085 211.658L634.093 208.644C633.117 208.471 632.414 207.607 632.444 206.616L633.398 174.118C633.425 173.197 634.079 172.413 634.981 172.221L649.003 169.236C649.14 169.207 649.28 169.192 649.42 169.192H659.194L688.097 170.311H705.439L733.481 174.18C733.703 174.21 733.929 174.203 734.149 174.159L752.894 170.385C753.136 170.336 753.367 170.243 753.575 170.11L758.515 166.955L772.704 159.125L781.017 152.88C781.416 152.58 781.913 152.44 782.41 152.488C790.348 153.254 805.116 154.651 806.337 154.651H814.324C815.613 154.651 816.564 155.853 816.303 157.116C816.035 158.412 815.796 159.722 815.796 160.244C815.796 160.51 815.641 160.782 815.401 161.043C814.498 162.026 814.017 163.514 814.865 164.545L816.736 166.82C816.81 166.91 816.876 167.006 816.933 167.108L819.742 172.091C819.911 172.391 820 172.729 820 173.073V175.904V180.751C820 180.875 819.988 180.999 819.966 181.12L819.161 185.399C819.03 186.099 818.536 186.677 817.865 186.915L816.007 187.574C815.867 187.624 815.721 187.657 815.573 187.675L806.337 188.767H795.989C795.881 188.767 795.773 188.776 795.666 188.794L789.665 189.776C789.23 189.847 788.832 190.06 788.53 190.38L786.013 193.06C785.899 193.18 785.771 193.287 785.632 193.376L783.476 194.752C783.303 194.863 783.115 194.946 782.916 194.998C778.612 196.14 770.258 198.275 769.026 198.275C767.764 198.275 757.289 197.529 752.209 197.156H740.648C735.393 197.902 724.567 199.505 723.306 199.953C722.045 200.4 714.723 202.376 711.219 203.309L685.615 209.426C685.518 209.449 685.419 209.465 685.32 209.473L672.332 210.579L651.541 211.686C651.388 211.694 651.235 211.684 651.085 211.658Z" stroke="black" stroke-opacity="0.01"/>
</g>
<g id="grupBracEsquerre">
<path id="bracEsquerre" d="M297.643 220.646L287.133 221.765H273.995H264.536H254.026H242.464L233.486 221.168C228.268 220.821 223.033 220.888 217.825 221.37L213.561 221.765H202L186.76 222.884H171.52H156.806H145.77L141.811 222.517C136.694 222.019 126.575 219.706 125.843 219.538C125.812 219.531 125.785 219.525 125.754 219.519L104.255 215.613L89.4661 214.494H87.4014H85.3367H74.8265L63.2653 215.613H60.5L54.1694 215.99C54.0567 215.997 53.9436 215.994 53.8313 215.981L47.6722 215.302C47.654 215.3 47.6385 215.298 47.6203 215.296C47.208 215.24 41.7078 214.494 38.8817 214.494H38.4383C34.3319 214.494 30.2378 214.016 26.2292 213.068L22.801 212.257L18.3265 211.697C15.3646 211.326 12.4557 210.575 9.66326 209.461L8.27091 208.826C6.97866 208.236 6.32666 206.691 6.77125 205.272C6.94353 204.722 6.95563 204.129 6.80596 203.571L6.52253 202.516C6.17293 201.213 6.21885 199.827 6.65374 198.554L8.08673 194.36L8.24002 193.871C9.06525 191.236 8.01017 188.349 5.72895 187L5.49688 186.863C5.12401 186.643 4.71924 186.49 4.29918 186.411C1.05554 185.802 -0.00989139 181.415 2.55017 179.209L6.59637 175.335C6.88279 175.061 7.24425 174.878 7.63485 174.809L13.4109 173.799C13.5211 173.78 13.6293 173.749 13.7391 173.728C13.9475 173.687 14.2273 173.667 14.3836 173.667H15.4439H24.3775L34.8877 172.548L36.7422 172.329C41.7638 171.735 46.846 172.189 51.7041 173.667L55.5162 174.86C55.6316 174.896 55.7435 174.943 55.8505 174.999L64.7969 179.709L72.3625 183.923C72.454 183.974 72.5494 184.018 72.6478 184.054L74.8265 184.852L79.4469 186.491C79.5196 186.517 79.5897 186.538 79.6651 186.555C80.5224 186.745 86.2264 187.97 89.2383 187.6L97.949 186.53L99.7881 186.221L115.116 184.852H116.342L133.684 182.615L141.004 181.502C145.927 180.754 150.894 180.378 155.867 180.378H166.791H174.398C179.814 180.378 185.206 181.13 190.439 182.615L196.158 183.552C201.446 184.418 206.789 184.852 212.14 184.852H217.765H230.378H236.788C239.158 184.852 241.514 184.475 243.778 183.734C246.043 182.992 248.398 182.615 250.768 182.615H255.699C259.826 182.615 263.941 182.135 267.969 181.182L271.367 180.378L272.01 180.207C277.179 178.832 282.236 177.019 287.133 174.785L295.541 171.43L297.849 170.611C299.453 170.042 301.132 169.752 302.823 169.752H303.396C305.148 169.752 306.881 169.373 308.492 168.639C309.315 168.263 310.172 167.98 311.05 167.793L312.028 167.585C313.99 167.167 315.892 166.473 317.681 165.52L318.748 164.953C319.038 164.799 319.357 164.718 319.685 164.718C321.265 164.718 326.28 164.718 329.699 164.718C331.916 164.718 335.253 164.718 335.896 164.718C335.97 164.718 336.04 164.722 336.113 164.729C336.691 164.788 339.455 165.038 341.26 164.718C342.734 164.457 344.731 163.608 345.581 163.228C345.852 163.106 346.144 163.04 346.442 163.04H351.133C351.207 163.04 351.281 163.036 351.355 163.028C351.899 162.966 354.343 162.688 355.974 162.481C358.814 162.12 363.107 161.475 363.77 161.376C363.83 161.367 363.888 161.361 363.948 161.357L372.61 160.845C373.067 160.818 373.501 160.635 373.839 160.326L376.696 157.72C376.893 157.54 377.124 157.402 377.376 157.312L380.148 156.329L383.959 154.5C384.584 154.2 384.954 153.541 384.885 152.851V152.851C384.741 151.407 386.401 150.496 387.542 151.393L412.937 171.376C413.975 172.193 413.95 173.774 412.886 174.558L335.705 231.451C334.957 232.002 333.929 231.966 333.221 231.364L326.838 225.929C326.645 225.764 326.423 225.638 326.183 225.557L315.177 221.83C315.049 221.787 314.918 221.757 314.785 221.74C311.809 221.359 307.5 220.646 307.5 220.646M297.643 220.646C299.745 220.646 306.659 220.646 307.5 220.646M297.643 220.646H301.321H307.5" stroke="black" stroke-opacity="0.01"/>
<path id="meitatBracEsquerre" d="M15.4439 173.667H24.3775L34.8877 172.548L36.7422 172.329C41.7638 171.735 46.846 172.189 51.7041 173.667L55.6897 174.914C58.9635 175.939 62.0451 177.561 64.7969 179.709C67.2642 181.635 69.9983 183.139 72.9009 184.169L74.8265 184.852L79.5561 186.53C82.6713 187.635 85.9762 188 89.2383 187.6L97.949 186.53L99.7881 186.221C105.21 185.31 110.691 184.852 116.18 184.852H116.342L133.684 182.615L141.004 181.502C145.927 180.754 150.894 180.378 155.867 180.378H166.791H174.398C179.814 180.378 185.206 181.13 190.439 182.615L196.158 183.552C201.446 184.417 206.789 184.852 212.14 184.852V184.852C212.925 184.852 213.561 185.489 213.561 186.274V219.765C213.561 220.87 212.666 221.765 211.561 221.765H202L186.76 222.884H171.52H156.806H145.77L141.811 222.517C136.403 222.017 131.046 221.016 125.801 219.528L104.255 215.613C99.3565 214.868 94.4144 214.494 89.4661 214.494H85.3367H74.8265L63.2653 215.613L63.1676 215.627C58.0079 216.359 52.7733 216.249 47.6449 215.299C44.751 214.764 41.819 214.494 38.8817 214.494H38.4383C34.3319 214.494 30.2378 214.016 26.2292 213.068L22.801 212.257L18.3265 211.697C15.3646 211.326 12.4557 210.575 9.66326 209.461L8.27091 208.826C6.97866 208.236 6.32666 206.691 6.77125 205.272C6.94353 204.722 6.95563 204.129 6.80596 203.571L6.52253 202.516C6.17293 201.213 6.21885 199.827 6.65374 198.554L8.08673 194.36L8.24002 193.871C9.06525 191.236 8.01017 188.349 5.72895 187L5.49688 186.863C5.12401 186.643 4.71924 186.49 4.29918 186.411C1.05554 185.802 -0.00989139 181.415 2.55017 179.209L6.59637 175.335C6.88279 175.061 7.24425 174.878 7.63485 174.809L13.4109 173.799C13.5211 173.78 13.6289 173.748 13.7373 173.721C13.8802 173.685 14.0267 173.667 14.1739 173.667H15.4439ZM15.4439 173.667H13.8673" stroke="black" stroke-opacity="0.01"/>
</g>
<g id="grupCapDret">
<path id="capDret" d="M440.066 18.6561L423.392 15.7785C422.199 15.5726 421.098 16.4657 421.053 17.6756L415.518 167.632C415.455 169.342 417.427 170.336 418.764 169.269L444.033 149.099C444.509 148.72 444.786 148.145 444.786 147.536V137.719C444.786 137.451 444.839 137.186 444.944 136.94L449.515 126.128L453.04 115.945C453.141 115.653 453.308 115.389 453.529 115.172L459.695 109.115C459.912 108.901 460.078 108.64 460.18 108.353L463.118 100.014C463.158 99.899 463.209 99.7881 463.27 99.6826L468.775 90.095C468.897 89.8829 468.979 89.6502 469.016 89.4086L470.326 81.0475C470.453 80.2382 470.073 79.4334 469.368 79.0165L466.485 77.312C466.049 77.0541 465.727 76.6402 465.584 76.1539L463.26 68.238C463.206 68.055 463.179 67.8653 463.179 67.6745V57.6122C463.179 57.4288 463.153 57.2462 463.104 57.0696L460.025 46.15L457.491 37.5194C457.429 37.3089 457.333 37.11 457.207 36.9307L449.674 26.2411C449.569 26.0916 449.443 25.9573 449.302 25.8419L440.988 19.0758C440.722 18.859 440.404 18.7145 440.066 18.6561Z" stroke="black" stroke-opacity="0.01"/>
<path id="meitatCapDret" d="M440.066 18.6561L423.391 15.7784C422.198 15.5725 421.098 16.465 421.052 17.6746L418.062 97.7666C418.02 98.8997 418.927 99.8413 420.061 99.8413H462.021C462.737 99.8413 463.398 99.4583 463.755 98.8372L468.775 90.095C468.897 89.8829 468.979 89.6502 469.016 89.4086L470.326 81.0475C470.453 80.2382 470.073 79.4334 469.368 79.0165L466.485 77.312C466.049 77.0541 465.727 76.6402 465.584 76.1539L463.26 68.238C463.206 68.055 463.179 67.8653 463.179 67.6745V57.6122C463.179 57.4288 463.153 57.2462 463.104 57.0696L460.026 46.1501L457.491 37.5194C457.429 37.3089 457.333 37.11 457.207 36.9307L449.674 26.2411C449.569 26.0916 449.443 25.9573 449.302 25.8419L440.988 19.0758C440.722 18.859 440.404 18.7145 440.066 18.6561Z" stroke="black" stroke-opacity="0.01"/>
</g>
<g id="grupCapEsquerre">
<path id="capEsquerre" d="M378.571 123.89L384.71 148.934C384.818 149.376 385.075 149.768 385.437 150.045L411.772 170.206C413.059 171.191 414.921 170.317 414.986 168.698L421.037 17.9068C421.088 16.62 419.928 15.6205 418.663 15.8622L400.806 19.2733C400.697 19.294 400.591 19.3237 400.487 19.3621L389.083 23.5835C388.739 23.7112 388.436 23.9314 388.208 24.22L377.621 37.6339C377.554 37.7184 377.494 37.8081 377.442 37.9021L370.94 49.6122C370.775 49.9092 370.689 50.2433 370.689 50.583V64.0471V70.5761C370.689 71.3671 370.223 72.0838 369.5 72.4044L364.989 74.4048C364.595 74.5793 364.269 74.876 364.057 75.2509L361.783 79.2841C361.44 79.8938 361.44 80.6388 361.783 81.2485L364.256 85.6349C364.34 85.7838 364.405 85.9429 364.448 86.1082L367.977 99.5208C368.033 99.733 368.123 99.9345 368.244 100.117L374.198 109.094C374.31 109.263 374.396 109.448 374.453 109.644L378.571 123.89Z" stroke="black" stroke-opacity="0.01"/>
<path id="meitatCapEsquerre" d="M364.448 86.1082L367.669 98.3501C367.9 99.2288 368.695 99.8413 369.603 99.8413H416.058C417.134 99.8413 418.016 98.9907 418.057 97.9159L421.044 17.8999C421.092 16.6153 419.933 15.6196 418.67 15.8608L400.806 19.2733C400.697 19.294 400.591 19.3237 400.487 19.3621L389.083 23.5835C388.739 23.7112 388.436 23.9314 388.208 24.22L377.621 37.6339C377.554 37.7184 377.494 37.8081 377.442 37.9021L370.94 49.6122C370.775 49.9092 370.689 50.2433 370.689 50.583V64.0471V70.5762C370.689 71.3671 370.223 72.0838 369.5 72.4045L364.989 74.4048C364.595 74.5793 364.269 74.876 364.057 75.2509L361.783 79.2841C361.44 79.8938 361.44 80.6388 361.783 81.2485L364.256 85.6349C364.34 85.7838 364.405 85.9429 364.448 86.1082Z" stroke="black" stroke-opacity="0.01"/>
</g>
<g id="grupPanxaEsquerre">
<path id="panxaEsquerre" d="M337.056 237.984L335.127 233.877C334.721 233.014 334.982 231.983 335.75 231.417L411.752 175.378C413.052 174.42 414.893 175.318 414.938 176.933L420.555 379.665C420.587 380.79 419.682 381.72 418.556 381.72H349.665C348.199 381.72 347.231 380.196 347.854 378.87L355.862 361.824C355.937 361.666 355.99 361.499 356.021 361.326L358.045 350.016C358.066 349.899 358.077 349.781 358.077 349.663V336.977V325.376C358.077 325.28 358.07 325.185 358.056 325.09L355.975 310.691L352.849 291.842C352.831 291.731 352.803 291.622 352.766 291.515L349.143 281.049C348.267 278.625 346.41 273.219 345.99 270.982C345.569 268.745 344.063 261.847 343.362 258.678L339.684 246.373L337.056 237.984Z" stroke="black" stroke-opacity="0.01"/>
<path id="meitatPanxaEsquerre" d="M337.056 237.984L335.127 233.877C334.721 233.014 334.982 231.983 335.75 231.417L411.748 175.381C413.049 174.422 414.891 175.322 414.934 176.937L418.455 308.638C418.485 309.763 417.582 310.691 416.456 310.691H357.67C356.692 310.691 355.857 309.983 355.697 309.018L352.849 291.842C352.831 291.731 352.803 291.622 352.766 291.515L349.143 281.049C348.267 278.625 346.41 273.219 345.99 270.982C345.569 268.745 344.063 261.847 343.362 258.678L339.684 246.373L337.056 237.984Z" stroke="black" stroke-opacity="0.01"/>
</g>
<g id="grupPanxaDreta">
<path id="panxaDreta" d="M493.726 367.069L495.415 378.304C495.597 379.514 494.66 380.601 493.437 380.601H423.078C421.997 380.601 421.112 379.743 421.079 378.662L414.955 176.613C414.905 174.954 416.781 173.959 418.126 174.933L492.248 228.574C493.056 229.159 493.297 230.248 492.894 231.161C491.521 234.277 491.921 235.53 491.556 236.306C491.136 237.201 488.578 249.356 487.352 255.322L482.622 276.575L477.893 297.828C477.367 300.81 476.316 309.908 476.316 311.25V325.061C476.316 325.176 476.326 325.286 476.345 325.399C477.233 330.49 479.054 340.567 479.469 341.452C479.886 342.339 484.467 351.723 486.766 356.428C486.807 356.512 486.853 356.592 486.906 356.67L493.403 366.243C493.571 366.491 493.681 366.773 493.726 367.069Z" stroke="black" stroke-opacity="0.01"/>
<path id="meitatPanxaDreta" d="M477.893 297.828C477.488 300.124 476.772 306.043 476.464 309.259C476.359 310.359 475.421 311.25 474.316 311.25H420.465C419.378 311.25 418.49 310.382 418.466 309.296L415.449 176.592C415.411 174.936 417.288 173.955 418.626 174.93L492.256 228.573C493.06 229.159 493.298 230.245 492.897 231.156C491.521 234.276 491.921 235.53 491.556 236.306C491.136 237.201 488.578 249.356 487.352 255.322L482.622 276.575L477.893 297.828Z" stroke="black" stroke-opacity="0.01"/>
</g>
<g id="grupCadera">
<path id="meitatCadera" d="M437.954 380.601L348.617 382.839H347.566L352.821 393.465L367.01 410.803L384.352 430.937L402.219 450.512L416.934 466.172L423.765 474.002L435.327 461.138L447.939 444.36L457.923 430.937L476.316 406.888L495.76 380.601H493.658H474.74H437.954Z" stroke="black" stroke-opacity="0.01"/>
<path id="cadera" d="M437.954 380.601L348.617 382.839H347.566L352.821 393.465L367.01 410.803L384.352 430.937H457.923L476.316 406.888L495.76 380.601H493.658H474.74H437.954Z" stroke="black" stroke-opacity="0.01"/>
</g>
<g id="grupCamaEsquerre">
<path id="camaEsquerre" d="M346.024 393.069L346.515 387.313C346.515 385.851 348.469 385.359 349.161 386.648L352.644 393.134C352.762 393.354 352.905 393.559 353.07 393.747L360.704 402.414L376.995 423.107L421.145 470.617C422.83 472.43 422.582 475.301 420.612 476.798L401.168 495.814L398.406 498.408C394.299 502.265 390.526 506.461 387.126 510.953L376.995 524.337L355.974 549.505C352.646 553.42 345.78 561.697 344.939 563.487C343.888 565.724 331.276 578.028 330.224 579.147C329.738 579.665 327.938 582.828 326.066 586.233C323.554 590.805 321.488 595.606 319.789 600.539L319.706 600.781C317.614 606.851 314.943 612.706 311.729 618.264L304.384 630.968C301.298 636.305 297.725 641.345 293.711 646.024L288.709 651.854C284.68 655.955 276.412 664.158 275.571 664.158C274.52 664.158 269.265 682.614 268.74 683.733C268.456 684.337 266.718 689.907 265.08 695.239C263.659 699.864 262.614 704.594 261.835 709.369C261.215 713.17 260.582 716.758 260.332 717.29L254.686 729.306C252.149 734.707 249.133 739.871 245.675 744.734L236.158 758.118L219.342 777.693L215.241 783.049C210.286 789.521 206.141 796.574 202.898 804.053L201.474 807.335L191.49 826.91L190.05 830.127C187.535 835.749 186.235 841.838 186.235 847.997C186.235 850.34 186.423 852.68 186.798 854.994L188.104 863.056C188.604 866.142 188.443 869.298 187.633 872.318C185.768 879.264 180.652 884.905 173.848 887.237C170.102 888.521 166.897 889.549 166.265 889.549H151.551H140.397C136.293 889.549 132.211 890.14 128.275 891.304C125.929 891.997 123.648 892.89 121.455 893.974L112.726 898.287C110.938 899.171 109.06 899.861 107.125 900.345C103.158 901.339 99.0214 901.451 95.0063 900.674L92.1164 900.115C90.4033 899.783 88.6624 899.616 86.9174 899.616H86.1847C83.1944 899.616 80.2314 900.186 77.4541 901.294L75.2349 902.18C73.9236 902.703 72.5247 902.972 71.1129 902.972H68.6666C65.9961 902.972 63.5502 901.477 62.3322 899.101C61.5766 897.627 61.3589 895.935 61.7165 894.318L62.1879 892.185C62.8821 889.045 64.7002 886.267 67.2999 884.374L71.4931 881.321C72.6625 880.469 73.8987 879.714 75.1896 879.061L94.2704 869.415L105.306 863.263L123.173 853.196L138.072 842.367C142.494 839.153 146.603 835.531 150.346 831.547C154.987 826.608 159.036 821.144 162.411 815.267L168.893 803.979L171.086 799.311C172.064 797.229 172.571 794.956 172.571 792.656C172.571 790.173 173.162 787.726 174.294 785.517L175.724 782.726L182.031 768.744L189.913 750.288L197.796 733.509L207.781 711.697L215.663 694.919L221.969 680.937L228.801 664.158L234.582 651.854L239.311 637.312L247.719 618.856L256.128 599.281L263.651 586.87C265.605 583.647 266.638 579.951 266.638 576.182C266.638 573.705 267.084 571.248 267.956 568.929L270.842 561.25L276.097 549.505L280.827 538.879L286.607 524.337L293.964 509.237L308.679 483.51L310.656 479.3C312.832 474.67 315.613 470.349 318.926 466.451C322.24 462.554 325.021 458.233 327.196 453.603L330.224 447.156L337.056 428.141L340.703 417.791C343.515 409.809 345.303 401.502 346.024 393.069Z" stroke="black" stroke-opacity="0.01"/>
<path id="meitatCamaEsquerre" d="M344.96 405.515L346.515 387.313C346.515 385.851 348.469 385.359 349.161 386.648L352.712 393.262C352.785 393.397 352.873 393.523 352.974 393.638L360.704 402.414L376.995 423.107L422.788 472.384C423.593 473.251 423.474 474.622 422.533 475.338L420.612 476.798L401.168 495.814L392.358 504.087C392.276 504.164 392.201 504.248 392.133 504.338L376.995 524.337L355.974 549.505C352.646 553.42 345.78 561.697 344.939 563.487C343.888 565.724 331.276 578.028 330.224 579.147C329.392 580.033 324.718 588.659 322.414 592.994C322.365 593.086 322.325 593.179 322.291 593.277L316.624 609.725C316.582 609.846 316.529 609.964 316.465 610.075L300.341 637.959C299.974 638.595 299.288 638.978 298.554 638.957L242.326 637.396C240.895 637.356 239.968 635.87 240.562 634.568L247.719 618.856L256.128 599.281L266.348 582.421C266.538 582.109 266.638 581.75 266.638 581.385V572.799C266.638 572.559 266.681 572.32 266.766 572.095L270.842 561.25L276.097 549.505L280.827 538.879L286.607 524.337L293.964 509.237L308.679 483.51L313.82 472.566C313.896 472.405 313.992 472.256 314.107 472.121L323.745 460.782C323.86 460.647 323.957 460.498 324.032 460.337L330.224 447.156L337.056 428.141L344.854 406.01C344.91 405.85 344.946 405.684 344.96 405.515Z" stroke="black" stroke-opacity="0.01"/>
</g>
<g id="grupCamaDreta">
<path id="camaDreta" d="M435.219 486.187L425.419 475.26C424.768 474.533 424.736 473.443 425.343 472.679L473.689 411.921L493.476 383.844C494.421 382.501 496.492 382.808 497.009 384.366L505.219 409.125L513.025 434.047C513.076 434.21 513.145 434.361 513.236 434.506C518.535 442.967 528.976 459.692 529.393 460.579C529.813 461.474 540.078 475.866 545.158 482.95L560.923 511.474L571.434 531.049L580.251 544.848C580.328 544.969 580.391 545.094 580.441 545.23C583.619 553.872 589.935 570.988 590.352 571.876C590.772 572.771 596.483 585.299 599.286 591.451C602.264 596.485 608.535 606.664 609.796 607.111C611.372 607.67 617.679 618.856 617.679 619.975C617.679 620.861 622.146 632.06 624.444 637.708C624.489 637.819 624.543 637.923 624.607 638.024L636.597 656.887L651.182 677.399C651.268 677.52 651.34 677.65 651.397 677.787L663.924 707.782L675.485 731.831L689.674 760.355L705.964 793.912L716.797 814.224C716.931 814.475 717.117 814.695 717.343 814.869L735.739 829.009C735.858 829.1 735.987 829.178 736.124 829.241L766.398 843.129L801.082 860.467L814.626 866.644C815.339 866.969 815.796 867.681 815.796 868.464V876.799C815.796 877.093 815.731 877.383 815.606 877.649L813.796 881.502C813.728 881.646 813.643 881.782 813.543 881.906L810.777 885.341C810.621 885.535 810.43 885.698 810.214 885.822L804.171 889.285C803.868 889.458 803.526 889.549 803.177 889.549H798.123C797.658 889.549 797.207 889.387 796.848 889.09L793.467 886.291C792.969 885.879 792.303 885.733 791.678 885.899L788.469 886.753C786.017 887.685 780.587 889.549 778.485 889.549H766.826C766.543 889.549 766.264 889.489 766.006 889.372L749.314 881.836C749.143 881.759 748.962 881.706 748.776 881.679L730.259 879.016C729.839 878.955 729.41 879.03 729.035 879.23L724.798 881.485C724.508 881.639 724.186 881.719 723.858 881.719H705.431C705.092 881.719 704.757 881.633 704.46 881.468L693.66 875.471C693.133 875.178 692.766 874.663 692.661 874.069L691.28 866.232C691.26 866.117 691.25 866.001 691.25 865.885V847.431C691.25 847.175 691.201 846.922 691.105 846.684L684.944 831.384L678.638 816.283L670.23 801.742L660.77 786.082L648.158 770.422L634.495 754.762L619.927 735.936C619.83 735.81 619.748 735.673 619.683 735.527L609.796 713.375L599.286 691.563L587.32 662.772C587.24 662.579 587.13 662.399 586.994 662.24L566.179 637.872L557.77 629.483L545.29 615.094C545.202 614.992 545.125 614.882 545.059 614.765L529.393 586.977L518.471 569.265C518.395 569.142 518.306 569.028 518.206 568.924L500.49 550.624L479.469 529.371L463.845 509.416C463.751 509.297 463.645 509.189 463.527 509.093L435.451 486.407C435.368 486.34 435.291 486.266 435.219 486.187Z" stroke="black" stroke-opacity="0.01"/>
<path id="meitatCamaDreta" d="M435.219 486.187L425.419 475.26C424.768 474.533 424.736 473.443 425.343 472.679L473.689 411.921L493.475 383.844C494.421 382.501 496.492 382.808 497.009 384.366L505.219 409.125L513.025 434.047C513.076 434.21 513.145 434.361 513.236 434.506C518.535 442.967 528.976 459.692 529.393 460.579C529.813 461.474 540.078 475.866 545.158 482.95L560.923 511.474L571.434 531.049L580.25 544.848C580.328 544.969 580.391 545.094 580.441 545.23C583.619 553.872 589.935 570.988 590.352 571.876C590.772 572.771 596.483 585.299 599.286 591.451C602.264 596.485 608.535 606.664 609.796 607.111C611.372 607.67 617.679 618.856 617.679 619.975C617.679 620.74 621.006 629.187 623.395 635.118C623.926 636.435 622.957 637.872 621.536 637.872H568.484C568.013 637.872 567.558 637.706 567.197 637.403L557.891 629.584C557.811 629.516 557.736 629.443 557.667 629.363L545.29 615.094C545.202 614.992 545.125 614.882 545.059 614.765L529.393 586.977L518.471 569.265C518.395 569.142 518.306 569.028 518.206 568.924L500.49 550.624L479.469 529.371L463.845 509.416C463.751 509.297 463.645 509.189 463.527 509.093L435.451 486.407C435.368 486.34 435.291 486.266 435.219 486.187Z" stroke="black" stroke-opacity="0.01"/>
</g>
</g>
<g id="grupText">
<path id="7" d="M549.871 577.149L560.28 556.558V556.377H548.28V553.877H563.189V556.513L552.826 577.149H549.871Z" fill="black"/>
<path id="5" d="M299.968 577.468C298.634 577.468 297.433 577.202 296.365 576.672C295.297 576.142 294.441 575.414 293.797 574.49C293.153 573.566 292.801 572.513 292.74 571.331H295.468C295.574 572.384 296.051 573.255 296.899 573.945C297.755 574.627 298.778 574.968 299.968 574.968C300.922 574.968 301.771 574.744 302.513 574.297C303.263 573.85 303.85 573.236 304.274 572.456C304.706 571.668 304.922 570.778 304.922 569.786C304.922 568.771 304.699 567.865 304.252 567.07C303.812 566.267 303.206 565.634 302.433 565.172C301.661 564.71 300.778 564.475 299.786 564.468C299.074 564.46 298.343 564.57 297.593 564.797C296.843 565.017 296.225 565.301 295.74 565.649L293.104 565.331L294.513 553.877H306.604V556.377H296.877L296.058 563.24H296.195C296.672 562.861 297.271 562.547 297.99 562.297C298.71 562.047 299.46 561.922 300.24 561.922C301.665 561.922 302.933 562.263 304.047 562.945C305.168 563.619 306.047 564.543 306.683 565.718C307.327 566.892 307.649 568.233 307.649 569.74C307.649 571.225 307.316 572.551 306.649 573.718C305.99 574.877 305.081 575.793 303.922 576.468C302.763 577.134 301.445 577.468 299.968 577.468Z" fill="black"/>
<path id="6" d="M421.289 417.512C420.335 417.497 419.38 417.316 418.426 416.967C417.471 416.619 416.6 416.031 415.812 415.206C415.024 414.372 414.392 413.247 413.914 411.831C413.437 410.406 413.199 408.619 413.199 406.467C413.199 404.406 413.392 402.581 413.778 400.99C414.164 399.391 414.725 398.047 415.46 396.956C416.195 395.857 417.081 395.024 418.119 394.456C419.164 393.887 420.342 393.603 421.653 393.603C422.956 393.603 424.115 393.865 425.13 394.387C426.153 394.903 426.986 395.622 427.63 396.547C428.274 397.471 428.691 398.535 428.88 399.74H426.108C425.85 398.694 425.35 397.827 424.608 397.137C423.865 396.448 422.88 396.103 421.653 396.103C419.85 396.103 418.43 396.887 417.392 398.456C416.361 400.024 415.842 402.225 415.835 405.058H416.017C416.441 404.414 416.945 403.865 417.528 403.41C418.119 402.948 418.77 402.592 419.483 402.342C420.195 402.092 420.949 401.967 421.744 401.967C423.077 401.967 424.297 402.3 425.403 402.967C426.509 403.626 427.395 404.539 428.062 405.706C428.729 406.865 429.062 408.194 429.062 409.694C429.062 411.134 428.74 412.452 428.096 413.649C427.452 414.838 426.547 415.785 425.38 416.49C424.221 417.187 422.858 417.528 421.289 417.512ZM421.289 415.012C422.244 415.012 423.1 414.774 423.858 414.297C424.623 413.819 425.225 413.179 425.664 412.376C426.111 411.573 426.335 410.679 426.335 409.694C426.335 408.732 426.119 407.857 425.687 407.069C425.263 406.274 424.676 405.641 423.926 405.172C423.183 404.702 422.335 404.467 421.38 404.467C420.661 404.467 419.99 404.611 419.369 404.899C418.748 405.179 418.202 405.566 417.733 406.058C417.27 406.55 416.907 407.115 416.642 407.751C416.377 408.38 416.244 409.043 416.244 409.74C416.244 410.664 416.46 411.528 416.892 412.331C417.331 413.134 417.93 413.781 418.687 414.274C419.452 414.766 420.32 415.012 421.289 415.012Z" fill="black"/>
<path id="9" d="M519.767 174.364C520.722 174.372 521.676 174.554 522.631 174.91C523.585 175.266 524.457 175.857 525.244 176.682C526.032 177.501 526.665 178.618 527.142 180.035C527.619 181.451 527.858 183.228 527.858 185.364C527.858 187.432 527.661 189.27 527.267 190.876C526.881 192.474 526.32 193.823 525.585 194.921C524.858 196.02 523.972 196.853 522.926 197.421C521.888 197.989 520.714 198.273 519.404 198.273C518.1 198.273 516.938 198.016 515.915 197.501C514.9 196.978 514.066 196.254 513.415 195.33C512.771 194.398 512.358 193.319 512.176 192.092H514.949C515.199 193.16 515.695 194.042 516.438 194.739C517.188 195.429 518.176 195.773 519.404 195.773C521.199 195.773 522.616 194.989 523.654 193.421C524.699 191.853 525.222 189.637 525.222 186.773H525.04C524.616 187.41 524.112 187.959 523.529 188.421C522.945 188.883 522.297 189.239 521.585 189.489C520.873 189.739 520.116 189.864 519.313 189.864C517.979 189.864 516.756 189.535 515.642 188.876C514.536 188.209 513.65 187.296 512.983 186.137C512.324 184.97 511.994 183.637 511.994 182.137C511.994 180.713 512.313 179.41 512.949 178.228C513.593 177.039 514.494 176.092 515.654 175.387C516.82 174.682 518.191 174.342 519.767 174.364ZM519.767 176.864C518.813 176.864 517.953 177.103 517.188 177.58C516.43 178.05 515.828 178.686 515.381 179.489C514.941 180.285 514.722 181.167 514.722 182.137C514.722 183.107 514.934 183.989 515.358 184.785C515.79 185.573 516.377 186.201 517.119 186.671C517.869 187.133 518.722 187.364 519.676 187.364C520.396 187.364 521.066 187.224 521.688 186.944C522.309 186.656 522.85 186.266 523.313 185.773C523.782 185.273 524.15 184.709 524.415 184.08C524.68 183.444 524.813 182.781 524.813 182.092C524.813 181.182 524.593 180.33 524.154 179.535C523.722 178.739 523.123 178.095 522.358 177.603C521.6 177.111 520.737 176.864 519.767 176.864Z" fill="black"/>
<path id="3" d="M311.273 204.318C309.773 204.318 308.436 204.061 307.261 203.545C306.095 203.03 305.167 202.314 304.477 201.398C303.795 200.473 303.424 199.402 303.364 198.182H306.227C306.288 198.932 306.545 199.58 307 200.125C307.455 200.663 308.049 201.08 308.784 201.375C309.519 201.67 310.333 201.818 311.227 201.818C312.227 201.818 313.114 201.644 313.886 201.295C314.659 200.947 315.265 200.462 315.705 199.841C316.144 199.22 316.364 198.5 316.364 197.682C316.364 196.826 316.152 196.072 315.727 195.42C315.303 194.761 314.682 194.246 313.864 193.875C313.045 193.504 312.045 193.318 310.864 193.318H309V190.818H310.864C311.788 190.818 312.598 190.652 313.295 190.318C314 189.985 314.549 189.515 314.943 188.909C315.345 188.303 315.545 187.591 315.545 186.773C315.545 185.985 315.371 185.299 315.023 184.716C314.674 184.133 314.182 183.678 313.545 183.352C312.917 183.027 312.174 182.864 311.318 182.864C310.515 182.864 309.758 183.011 309.045 183.307C308.341 183.595 307.765 184.015 307.318 184.568C306.871 185.114 306.629 185.773 306.591 186.545H303.864C303.909 185.326 304.277 184.258 304.966 183.341C305.655 182.417 306.557 181.697 307.67 181.182C308.792 180.667 310.023 180.409 311.364 180.409C312.803 180.409 314.038 180.701 315.068 181.284C316.098 181.86 316.89 182.621 317.443 183.568C317.996 184.515 318.273 185.538 318.273 186.636C318.273 187.947 317.928 189.064 317.239 189.989C316.557 190.913 315.629 191.553 314.455 191.909V192.091C315.924 192.333 317.072 192.958 317.898 193.966C318.723 194.966 319.136 196.205 319.136 197.682C319.136 198.947 318.792 200.083 318.102 201.091C317.42 202.091 316.489 202.879 315.307 203.455C314.125 204.03 312.78 204.318 311.273 204.318Z" fill="black"/>
<path id="8" d="M456.751 265.387C455.191 265.387 453.812 265.111 452.615 264.558C451.426 263.997 450.498 263.228 449.831 262.251C449.164 261.266 448.835 260.145 448.842 258.887C448.835 257.903 449.028 256.993 449.422 256.16C449.816 255.319 450.354 254.618 451.035 254.058C451.725 253.49 452.494 253.13 453.342 252.978V252.842C452.229 252.554 451.342 251.929 450.683 250.967C450.024 249.997 449.698 248.895 449.706 247.66C449.698 246.478 449.998 245.421 450.604 244.49C451.21 243.558 452.043 242.823 453.104 242.285C454.172 241.747 455.388 241.478 456.751 241.478C458.1 241.478 459.304 241.747 460.365 242.285C461.426 242.823 462.259 243.558 462.865 244.49C463.479 245.421 463.789 246.478 463.797 247.66C463.789 248.895 463.452 249.997 462.785 250.967C462.126 251.929 461.251 252.554 460.16 252.842V252.978C461.001 253.13 461.759 253.49 462.433 254.058C463.107 254.618 463.645 255.319 464.047 256.16C464.448 256.993 464.653 257.903 464.66 258.887C464.653 260.145 464.312 261.266 463.638 262.251C462.971 263.228 462.043 263.997 460.854 264.558C459.672 265.111 458.304 265.387 456.751 265.387ZM456.751 262.887C457.804 262.887 458.714 262.717 459.479 262.376C460.244 262.035 460.835 261.554 461.251 260.933C461.668 260.312 461.88 259.584 461.888 258.751C461.88 257.872 461.653 257.096 461.206 256.421C460.759 255.747 460.149 255.217 459.376 254.831C458.611 254.444 457.736 254.251 456.751 254.251C455.759 254.251 454.873 254.444 454.092 254.831C453.32 255.217 452.71 255.747 452.263 256.421C451.823 257.096 451.607 257.872 451.615 258.751C451.607 259.584 451.808 260.312 452.217 260.933C452.634 261.554 453.229 262.035 454.001 262.376C454.774 262.717 455.691 262.887 456.751 262.887ZM456.751 251.842C457.585 251.842 458.323 251.675 458.967 251.342C459.619 251.009 460.13 250.543 460.501 249.944C460.873 249.346 461.062 248.645 461.07 247.842C461.062 247.054 460.876 246.368 460.513 245.785C460.149 245.194 459.645 244.74 459.001 244.421C458.357 244.096 457.607 243.933 456.751 243.933C455.88 243.933 455.119 244.096 454.467 244.421C453.816 244.74 453.312 245.194 452.956 245.785C452.6 246.368 452.426 247.054 452.433 247.842C452.426 248.645 452.604 249.346 452.967 249.944C453.339 250.543 453.85 251.009 454.501 251.342C455.153 251.675 455.903 251.842 456.751 251.842Z" fill="black"/>
<path id="1" d="M441.713 72.8929V96.1656H438.895V75.8475H438.759L433.077 79.6202V76.7566L438.895 72.8929H441.713Z" fill="black"/>
<path id="2" d="M389.389 96.1656V94.1202L397.071 85.7111C397.972 84.7263 398.714 83.8702 399.298 83.1429C399.881 82.4081 400.313 81.7187 400.593 81.0747C400.881 80.4232 401.025 79.7414 401.025 79.0293C401.025 78.2111 400.828 77.5028 400.434 76.9043C400.048 76.3058 399.517 75.8437 398.843 75.5179C398.169 75.1922 397.411 75.0293 396.571 75.0293C395.677 75.0293 394.896 75.2149 394.23 75.5861C393.571 75.9497 393.059 76.4611 392.696 77.1202C392.339 77.7793 392.161 78.552 392.161 79.4384H389.48C389.48 78.0747 389.794 76.8778 390.423 75.8475C391.052 74.8172 391.908 74.0141 392.991 73.4384C394.082 72.8626 395.305 72.5747 396.661 72.5747C398.025 72.5747 399.233 72.8626 400.286 73.4384C401.339 74.0141 402.165 74.7906 402.764 75.7679C403.362 76.7452 403.661 77.8323 403.661 79.0293C403.661 79.8853 403.506 80.7225 403.196 81.5406C402.892 82.3513 402.362 83.2566 401.605 84.2566C400.855 85.249 399.813 86.4611 398.48 87.8929L393.252 93.4838V93.6656H404.071V96.1656H389.389Z" fill="black"/>
<path id="4" d="M364.67 260.296V257.978L374.897 241.796H376.579V245.387H375.442L367.715 257.615V257.796H381.488V260.296H364.67ZM375.624 265.069V259.592V258.512V241.796H378.306V265.069H375.624Z" fill="black"/>
</g>
<g id="grupContorn">
<path id="contornSencer" d="M15.4439 173.667H24.3775L34.8877 172.548L36.7422 172.329C41.7638 171.735 46.846 172.189 51.7041 173.667L55.6897 174.914C58.9635 175.939 62.0451 177.561 64.7969 179.709C67.2642 181.635 69.9983 183.139 72.9009 184.169L74.8265 184.852L79.5561 186.53C82.6713 187.635 85.9762 188 89.2383 187.6L97.949 186.53L99.7881 186.221C105.21 185.31 110.691 184.852 116.18 184.852H116.342L133.684 182.615L141.004 181.502C145.927 180.754 150.894 180.378 155.867 180.378H166.791H174.398C179.814 180.378 185.206 181.13 190.439 182.615L196.158 183.552C201.446 184.418 206.789 184.852 212.14 184.852H217.765H230.378H236.788C239.158 184.852 241.514 184.475 243.778 183.734C246.043 182.992 248.398 182.615 250.768 182.615H255.699C259.826 182.615 263.941 182.135 267.969 181.182L271.367 180.378L272.01 180.207C277.179 178.832 282.236 177.019 287.133 174.785L295.541 171.43L297.849 170.611C299.453 170.042 301.132 169.752 302.823 169.752H303.396C305.148 169.752 306.881 169.373 308.492 168.639C309.315 168.263 310.172 167.98 311.05 167.793L312.028 167.585C313.99 167.167 315.892 166.473 317.681 165.52V165.52C318.671 164.994 319.773 164.718 320.894 164.718C323.079 164.718 326.918 164.718 329.699 164.718C330.024 164.718 330.374 164.718 330.736 164.718C334.246 164.718 337.804 165.331 341.26 164.718V164.718C341.514 164.673 341.784 164.611 342.06 164.536C344.736 163.815 347.428 163.04 350.199 163.04V163.04C350.896 163.04 351.591 163.001 352.283 162.922C353.291 162.806 354.832 162.626 355.974 162.481C358.156 162.204 361.197 161.759 362.789 161.522C363.502 161.416 364.218 161.341 364.937 161.299L370.152 160.99C372.199 160.869 374.143 160.049 375.658 158.667V158.667C376.541 157.862 377.575 157.242 378.7 156.843L380.148 156.329V156.329C383.065 154.929 384.806 151.863 384.513 148.64L384.5 148.5L383.301 142.347L378.571 123.89L375.89 114.616C374.881 111.125 373.345 107.808 371.337 104.78V104.78C369.168 101.51 367.552 97.905 366.553 94.1101L364.686 87.0135C364.485 86.2471 364.186 85.5097 363.796 84.8194L363.215 83.7886C361.983 81.6022 361.998 78.9037 363.23 76.7173V76.7173C363.973 75.4003 365.129 74.3425 366.511 73.7296V73.7296C369.051 72.6033 370.689 70.0857 370.689 67.3072V64.0471V60.7908C370.689 53.7563 372.481 46.8378 375.895 40.6877V40.6877C376.977 38.7396 378.214 36.882 379.594 35.1329L382.393 31.5876C386.424 26.4806 391.784 22.5838 397.886 20.3252V20.3252C399.721 19.6459 401.609 19.1199 403.531 18.7528L413.196 16.9064C418.448 15.9033 423.837 15.8553 429.105 16.7645L433.144 17.4615C438.02 18.3031 442.598 20.386 446.436 23.5096V23.5096C448.479 25.1726 450.285 27.1079 451.802 29.2614L453.094 31.0948C455.944 35.1384 458.109 39.6232 459.503 44.3696L460.026 46.1501L461.765 52.3221C462.703 55.6487 463.179 59.0885 463.179 62.5447V65.4702C463.179 67.123 463.415 68.7673 463.881 70.3531L465.237 74.9727C465.603 76.218 466.428 77.278 467.545 77.9386V77.9386C469.351 79.0063 470.323 81.0673 469.998 83.1399L469.248 87.9297C469.057 89.1523 468.681 90.3389 468.135 91.4492L463.179 101.519L461.755 104.803C460.613 107.436 458.973 109.824 456.925 111.835V111.835C454.471 114.246 452.608 117.193 451.483 120.444L449.515 126.128L446.39 133.519C445.331 136.023 444.786 138.714 444.786 141.432V142.474C444.786 146.376 446.103 150.164 448.524 153.223V153.223C451.503 156.988 455.909 159.35 460.695 159.731C467.238 160.253 474.381 160.803 475.265 160.803C475.768 160.803 477.792 160.625 480.377 160.376C488.491 159.593 496.678 159.879 504.694 161.362V161.362L509.987 162.113C516.949 163.101 523.788 164.821 530.389 167.244L535.699 169.192L548.311 172.548L558.296 174.226L577.214 177.022L585.215 177.695C593.165 178.363 601.168 178.077 609.05 176.843L615.051 175.904L633.444 172.548L639.443 171.271C645.936 169.889 652.556 169.192 659.194 169.192V169.192L688.097 170.311H705.439L724.473 172.937C730.658 173.79 736.942 173.597 743.062 172.364L747.148 171.542C751.188 170.728 755.042 169.173 758.515 166.955V166.955L772.704 159.125V159.125C778.451 154.808 785.605 152.803 792.762 153.473C799.273 154.083 805.559 154.651 806.337 154.651C806.988 154.651 808.972 154.651 811.15 154.651C814.06 154.651 815.796 157.334 815.796 160.244V160.244V160.244C815.796 162.034 814.307 163.866 815.444 165.249L816.621 166.68C816.771 166.863 816.905 167.059 817.022 167.266L818.352 169.625C819.432 171.541 820 173.704 820 175.904V175.904V180.144C820 180.672 819.951 181.198 819.854 181.717L819.466 183.778C819.146 185.482 817.944 186.887 816.31 187.466V187.466C815.968 187.588 815.614 187.67 815.254 187.713L806.337 188.767H797.165C796.274 188.767 795.385 188.84 794.506 188.984L792.317 189.342C790.163 189.695 788.185 190.748 786.689 192.339V192.339C786.127 192.939 785.491 193.465 784.799 193.908L784.672 193.989C783.706 194.606 782.652 195.07 781.544 195.36C777.042 196.538 770.137 198.275 769.026 198.275C767.764 198.275 757.289 197.529 752.209 197.157H740.648C735.393 197.902 724.567 199.506 723.306 199.953C722.045 200.4 714.723 202.377 711.219 203.309L692.757 207.72C687.906 208.879 682.974 209.673 678.003 210.096L672.332 210.579L662.175 211.12C654.956 211.504 647.717 211.06 640.6 209.798V209.798C635.139 208.829 629.604 208.342 624.058 208.342H610.847C604.891 209.088 592.769 210.579 591.929 210.579C591.088 210.579 581.769 211.325 577.214 211.698L555.143 212.816H543.87C537.039 212.816 530.224 213.505 523.545 214.94C517.437 216.252 511.526 217.57 511 217.85C510.444 218.146 504.658 222.608 499.735 225.979C495.974 228.553 493.494 232.181 491.556 236.306V236.306C491.136 237.201 488.578 249.356 487.352 255.322L482.622 276.575L477.893 297.828C477.367 300.81 476.316 307.112 476.316 308.454C476.316 309.199 476.316 312.736 476.316 316.597C476.316 322.343 476.793 328.083 477.846 333.732C478.554 337.533 479.235 340.953 479.469 341.452C479.821 342.201 483.147 349.018 485.556 353.952C486.402 355.684 487.37 357.353 488.452 358.948V358.948C491.879 363.998 494.129 369.752 495.036 375.787L495.185 376.773C495.568 379.321 496.168 381.831 496.979 384.276L505.219 409.125L509.254 422.007C511.809 430.164 515.403 437.957 519.925 445.211C524.541 452.613 529.12 459.997 529.393 460.579C529.813 461.474 540.078 475.866 545.158 482.95L560.923 511.474L571.434 531.049L574.524 535.885C578.408 541.964 581.621 548.447 584.12 555.215C587.03 563.092 590.067 571.27 590.352 571.876C590.772 572.771 596.483 585.299 599.286 591.451C602.264 596.485 608.535 606.664 609.796 607.111C611.372 607.671 617.679 618.856 617.679 619.975C617.679 620.516 619.343 624.899 621.162 629.517C623.357 635.088 626.126 640.414 629.338 645.468L636.597 656.888L644.837 668.476C649.14 674.527 652.755 681.039 655.616 687.89L663.923 707.782L675.485 731.831L689.673 760.355L705.964 793.912L709.63 800.786C714.487 809.894 721.234 817.86 729.418 824.15V824.15C733.738 827.471 738.418 830.294 743.37 832.565L766.398 843.129L801.082 860.467L808.997 864.077C813.138 865.966 815.796 870.099 815.796 874.651V874.651C815.796 876.359 815.419 878.047 814.693 879.593L814.429 880.155C813.941 881.194 813.33 882.171 812.61 883.065L812.467 883.243C811.194 884.823 809.637 886.152 807.876 887.161L806.035 888.217C804.511 889.09 802.785 889.549 801.029 889.549H799.929C798.296 889.549 796.715 888.98 795.457 887.939V887.939C793.71 886.493 791.373 885.981 789.181 886.564L788.469 886.753C786.017 887.685 780.587 889.549 778.485 889.549C778.313 889.549 778.11 889.549 777.88 889.549C770.314 889.549 762.832 887.939 755.936 884.826L754.467 884.162C750.877 882.542 747.078 881.435 743.18 880.874L732.954 879.404C730.783 879.091 728.568 879.478 726.632 880.509V880.509C725.138 881.304 723.472 881.719 721.78 881.719H709.781C706.589 881.719 703.449 880.906 700.658 879.356L699.539 878.735C695.293 876.377 692.337 872.23 691.494 867.446V867.446C691.332 866.524 691.25 865.588 691.25 864.651V860.148C691.25 851.492 689.588 842.917 686.355 834.888L684.944 831.384L678.638 816.283L670.23 801.742L660.77 786.082L648.158 770.422L634.495 754.762L627.122 745.234C622.245 738.931 618.139 732.069 614.892 724.792L609.796 713.375L599.286 691.563L594.19 679.303C589.567 668.179 582.973 657.983 574.724 649.204L574.587 649.058L557.77 629.483L551.769 622.564C547.373 617.495 543.498 611.997 540.203 606.152L529.393 586.977L524.065 578.336C520.271 572.183 515.821 566.46 510.794 561.267L500.49 550.624L479.469 529.371L470.727 518.206C466.06 512.246 460.731 506.835 454.843 502.077L436.355 487.137C435.671 486.584 435.031 485.977 434.443 485.321L427.376 477.442C425.633 475.498 422.69 475.218 420.612 476.798V476.798L401.168 495.814L398.406 498.408C394.299 502.265 390.526 506.461 387.126 510.953L376.995 524.337L355.974 549.505C352.646 553.42 345.78 561.697 344.939 563.487C343.888 565.724 331.276 578.029 330.224 579.147C329.738 579.665 327.938 582.828 326.066 586.233C323.554 590.805 321.488 595.607 319.789 600.539L319.706 600.781C317.614 606.851 314.943 612.706 311.729 618.264L304.384 630.968C301.298 636.305 297.725 641.345 293.711 646.024L288.709 651.854C284.68 655.955 276.412 664.158 275.571 664.158C274.52 664.158 269.265 682.615 268.74 683.733C268.456 684.337 266.718 689.907 265.08 695.24C263.659 699.864 262.614 704.594 261.835 709.369C261.215 713.17 260.582 716.758 260.332 717.29C260.056 717.877 257.354 723.629 254.686 729.306C252.149 734.707 249.133 739.871 245.675 744.734L236.158 758.118L219.342 777.693L215.241 783.049C210.286 789.521 206.141 796.574 202.898 804.053L201.474 807.335L191.49 826.91L190.05 830.127C187.535 835.749 186.235 841.838 186.235 847.997V847.997C186.235 850.341 186.423 852.68 186.798 854.994L188.104 863.056C188.604 866.142 188.443 869.299 187.633 872.318V872.318C185.768 879.264 180.652 884.905 173.848 887.237C170.102 888.521 166.897 889.549 166.265 889.549C165.004 889.549 155.93 889.549 151.551 889.549H140.398C136.293 889.549 132.211 890.14 128.275 891.304V891.304C125.929 891.997 123.648 892.891 121.455 893.974L112.726 898.287C110.938 899.171 109.06 899.861 107.125 900.345V900.345C103.158 901.339 99.0213 901.451 95.0062 900.674L92.1165 900.115C90.4033 899.783 88.6623 899.616 86.9174 899.616H86.1847C83.1944 899.616 80.2314 900.186 77.4541 901.294L75.2349 902.18C73.9236 902.703 72.5247 902.972 71.1128 902.972H68.6666C65.996 902.972 63.5502 901.477 62.3322 899.101V899.101C61.5766 897.627 61.3589 895.935 61.7165 894.318L62.1879 892.185C62.8821 889.045 64.7002 886.267 67.2999 884.374L71.4931 881.321C72.6624 880.469 73.8986 879.714 75.1896 879.061L94.2704 869.415L105.306 863.263L123.173 853.196L138.072 842.367C142.494 839.154 146.603 835.531 150.346 831.547V831.547C154.987 826.608 159.036 821.144 162.411 815.267L168.893 803.979L171.086 799.311C172.064 797.229 172.571 794.956 172.571 792.656V792.656C172.571 790.173 173.162 787.726 174.294 785.517L175.724 782.726L182.031 768.744L189.913 750.288L197.796 733.509L207.781 711.697L215.663 694.919L221.969 680.937L228.801 664.158L234.582 651.854L239.311 637.313L247.719 618.856L256.128 599.281L263.651 586.87C265.605 583.648 266.638 579.951 266.638 576.182V576.182C266.638 573.705 267.084 571.248 267.956 568.929L270.842 561.25L276.097 549.505L280.827 538.879L286.607 524.337L293.964 509.237L308.679 483.51L310.656 479.3C312.832 474.67 315.612 470.349 318.926 466.452V466.452C322.24 462.554 325.021 458.233 327.196 453.603L330.224 447.156L337.056 428.141L340.703 417.791C343.515 409.809 345.303 401.502 346.024 393.069L346.515 387.313V387.313C346.515 383.63 347.327 379.992 348.893 376.658L352.943 368.039C354.955 363.755 356.397 359.226 357.231 354.568V354.568C357.793 351.423 358.077 348.234 358.077 345.039V336.977V332.423C358.077 327.635 357.733 322.854 357.048 318.116L355.974 310.691L354.206 300.029C353.285 294.47 351.895 288.999 350.052 283.674L349.143 281.049C348.267 278.626 346.41 273.219 345.99 270.982C345.569 268.745 344.063 261.847 343.362 258.678L339.684 246.374L337 238.5L336.895 238.25C335.273 234.398 332.771 230.98 329.589 228.271V228.271C327.571 226.553 325.31 225.145 322.879 224.093L317.5 221.765C314.522 221.392 305.841 220.646 305 220.646M15.4439 173.667H13.8673M15.4439 173.667H14.1739V173.667C13.7685 173.667 13.3758 173.805 12.9764 173.875L12.1603 174.018C8.81945 174.602 5.72775 176.167 3.278 178.512L2.55017 179.209C-0.00989139 181.415 1.05554 185.802 4.29918 186.411C4.71924 186.49 5.12401 186.643 5.49688 186.863L5.72895 187C8.01017 188.349 9.06525 191.236 8.24002 193.871L8.08673 194.36L6.65374 198.554C6.21885 199.827 6.17293 201.213 6.52253 202.516L6.80596 203.571C6.95563 204.129 6.94353 204.722 6.77125 205.272C6.32666 206.691 6.97866 208.236 8.27091 208.826L9.66326 209.461C12.4557 210.575 15.3646 211.326 18.3265 211.697L22.801 212.257L26.2292 213.068C30.2378 214.016 34.3319 214.494 38.4383 214.494H38.8817C41.819 214.494 44.751 214.764 47.6449 215.299C52.7733 216.249 58.0079 216.359 63.1676 215.627L63.2653 215.613L74.8265 214.494H85.3367H89.4661C94.4144 214.494 99.3565 214.868 104.255 215.613L125.801 219.528C131.046 221.016 136.403 222.017 141.811 222.517L145.77 222.884H156.806H171.52H186.76L194.38 222.324L202 221.765H213.561L217.825 221.37C223.033 220.888 228.268 220.821 233.486 221.168L242.464 221.765H254.026H264.536H273.995H287.133L297.643 220.646M297.643 220.646C299.745 220.646 304.159 220.646 305 220.646M297.643 220.646H305" stroke="black" stroke-width="2"/>
<g id="grupDelimitador">
<path id="delimitadorCadera" d="M437.954 380.601L348.617 382.839H347.566L352.821 393.465L367.01 410.803L384.352 430.937L402.219 450.512L416.934 466.172L423.765 474.002L435.327 461.138L447.939 444.36L465.806 420.87L476.316 406.888L495.76 380.601H493.658H474.74H437.954Z" stroke="#FF0000"/>
<path id="delimitadorPit" d="M420.612 380.601L414.832 173.107M414.832 173.107L338.107 230.154L334.954 232.391M414.832 173.107L470.01 211.698L494.709 230.154M414.832 173.107L385 149M414.832 173.107L445 149M414.832 173.107L420.612 14.8301" stroke="#FF0000"/>
</g>
</g>
<g id="grupCreu">
<path id="creu2" d="M525.777 9.32062L60.6377 924.225" stroke="black" stroke-width="3"/>
<path id="creu1" d="M297.363 5.88594L548.434 459.183L799.505 912.48" stroke="black" stroke-width="3"/>
</g>
</g>
</g>
</svg>
